<svg width="32" height="24" viewBox="0 0 32 24" fill="none" xmlns="http://www.w3.org/2000/svg">
<path d="M26.6667 6H5.33333C3.86057 6 2.66666 6.89543 2.66666 8V16C2.66666 17.1046 3.86057 18 5.33333 18H26.6667C28.1394 18 29.3333 17.1046 29.3333 16V8C29.3333 6.89543 28.1394 6 26.6667 6Z" stroke="black" stroke-width="2" stroke-linecap="round" stroke-linejoin="round"/>
<path d="M16 14C17.4728 14 18.6667 13.1046 18.6667 12C18.6667 10.8954 17.4728 10 16 10C14.5272 10 13.3333 10.8954 13.3333 12C13.3333 13.1046 14.5272 14 16 14Z" stroke="black" stroke-width="2" stroke-linecap="round" stroke-linejoin="round"/>
<path d="M8 12H8.01333M24 12H24.0133" stroke="black" stroke-width="2" stroke-linecap="round" stroke-linejoin="round"/>
</svg>
