<svg width="32" height="24" viewBox="0 0 32 24" fill="none" xmlns="http://www.w3.org/2000/svg">
<path d="M8 22V4C8 3.73 8 3.45 8.09333 3.18C8.17494 2.91063 8.35564 2.66382 8.6149 2.46761C8.87416 2.27139 9.20159 2.13364 9.56 2.07C9.94667 2 11.64 2 12 2H21.3333C21.6933 2 22.0667 2 22.4267 2.07C22.7858 2.13121 23.1149 2.26673 23.3765 2.46117C23.6381 2.65562 23.8218 2.90119 23.9067 3.17C24 3.45 24 3.73 24 4V22H8Z" stroke="black" stroke-width="2" stroke-linecap="round" stroke-linejoin="round"/>
<path d="M2.66667 14V20C2.66667 21.1 3.86667 22 5.33334 22H8V12H5.33334C4.97333 12 4.6 12 4.24 12.07C3.88 12.14 3.54667 12.27 3.28 12.47C3.02667 12.66 2.85333 12.91 2.76 13.18C2.68473 13.4495 2.65339 13.7248 2.66667 14Z" stroke="black" stroke-width="2" stroke-linecap="round" stroke-linejoin="round"/>
<path d="M27.76 9.07003C27.4007 9.01358 27.0335 8.99007 26.6667 9.00003H24V22H26.6667C27.3739 22 28.0522 21.7893 28.5523 21.4142C29.0524 21.0392 29.3333 20.5305 29.3333 20V11C29.3333 10.72 29.3333 10.45 29.24 10.18C29.1467 9.91003 28.9733 9.66003 28.7067 9.46003C28.4533 9.27003 28.12 9.14003 27.76 9.07003Z" stroke="black" stroke-width="2" stroke-linecap="round" stroke-linejoin="round"/>
<path d="M13.3333 6H18.6667" stroke="black" stroke-width="2" stroke-linecap="round" stroke-linejoin="round"/>
<path d="M13.3333 10H18.6667" stroke="black" stroke-width="2" stroke-linecap="round" stroke-linejoin="round"/>
<path d="M13.3333 14H18.6667" stroke="black" stroke-width="2" stroke-linecap="round" stroke-linejoin="round"/>
<path d="M13.3333 18H18.6667" stroke="black" stroke-width="2" stroke-linecap="round" stroke-linejoin="round"/>
</svg>
