<svg width="342" height="228" viewBox="0 0 342 228" fill="none" xmlns="http://www.w3.org/2000/svg">
<g clip-path="url(#clip0_352_243)">
<g clip-path="url(#clip1_352_243)">
<g clip-path="url(#clip2_352_243)">
<path d="M341.648 12H1.0127V239.09H341.648V12Z" fill="white"/>
<path d="M79.0327 122.476C89.9767 114.291 108.584 119.361 119.115 109.28C127.84 100.925 120.789 90.8476 128.573 81.8076C141.398 66.9121 181.158 70.3316 197.027 90.1394C205.186 100.324 202.31 108.95 209.862 112.432C223.215 118.59 236.9 93.7881 256.474 97.1202C272.356 99.8242 283.128 119.523 286.048 134.498C290.669 158.194 276.837 176.172 274.639 178.933L85.563 181.11C82.26 174.883 43.6795 148.914 79.0327 122.476Z" fill="#D7D7F9"/>
<path d="M171.331 198.33C239.977 198.33 295.626 191.762 295.626 183.659C295.626 175.556 239.977 168.988 171.331 168.988C102.684 168.988 47.0352 175.556 47.0352 183.659C47.0352 191.762 102.684 198.33 171.331 198.33Z" fill="#C1B6F2"/>
<path d="M153.457 188.775C204.152 188.775 245.248 184.571 245.248 179.386C245.248 174.2 204.152 169.996 153.457 169.996C102.762 169.996 61.665 174.2 61.665 179.386C61.665 184.571 102.762 188.775 153.457 188.775Z" fill="#867CBF"/>
<path d="M116.168 74.342L119.659 83.3834L119.043 172.319L116.168 176.724V74.342Z" fill="#644684"/>
<path d="M116.168 74.342H69.1943V176.724H116.168V74.342Z" fill="#755293"/>
<path d="M92.0615 76.1436H71.4043V111.072H92.0615V76.1436Z" fill="#8766AA"/>
<path d="M74.2029 111.071H71.4043V76.1436L74.2029 81.5995V111.071Z" fill="#9179B7"/>
<path d="M92.0617 81.4451H74.2031V111.071H92.0617V81.4451Z" fill="#8E8EC1"/>
<path d="M114.116 76.1436H93.459V111.072H114.116V76.1436Z" fill="#8766AA"/>
<path d="M96.2583 111.071H93.459V76.1436L96.2583 81.5995V111.071Z" fill="#9179B7"/>
<path d="M114.117 81.4451H96.2588V111.071H114.117V81.4451Z" fill="#8E8EC1"/>
<path d="M92.0615 114.097H71.4043V130.141H92.0615V114.097Z" fill="#8766AA"/>
<path d="M92.0609 114.73H72.3623V129.588H92.0609V114.73Z" fill="#A989C6"/>
<path d="M114.116 114.097H93.459V130.141H114.116V114.097Z" fill="#8766AA"/>
<path d="M92.0615 131.879H71.4043V147.923H92.0615V131.879Z" fill="#8766AA"/>
<path d="M114.116 131.879H93.459V147.923H114.116V131.879Z" fill="#8766AA"/>
<path d="M92.0615 149.659H71.4043V165.703H92.0615V149.659Z" fill="#8766AA"/>
<path d="M114.116 149.659H93.459V165.703H114.116V149.659Z" fill="#8766AA"/>
<path d="M84.4065 116.129H80.2031V117.677H84.4065V116.129Z" fill="#FFC3A9"/>
<path d="M92.0609 132.6H72.3623V147.458H92.0609V132.6Z" fill="#A989C6"/>
<path d="M114.023 132.6H94.3242V147.458H114.023V132.6Z" fill="#A989C6"/>
<path d="M92.0609 150.253H72.3623V165.111H92.0609V150.253Z" fill="#A989C6"/>
<path d="M114.023 150.253H94.3242V165.111H114.023V150.253Z" fill="#A989C6"/>
<path d="M84.4065 134.994H80.2031V136.542H84.4065V134.994Z" fill="#FFC3A9"/>
<path d="M105.89 134.994H101.687V136.542H105.89V134.994Z" fill="#FFC3A9"/>
<path d="M84.4065 151.53H80.2031V153.078H84.4065V151.53Z" fill="#FFC3A9"/>
<path d="M105.89 151.53H101.687V153.078H105.89V151.53Z" fill="#FFC3A9"/>
<path d="M78.2014 95.5588H73.7979V111.072H78.2014V95.5588Z" fill="#B9B9EA"/>
<path d="M76.9001 96.8596H75.0986V98.6611H76.9001V96.8596Z" fill="white"/>
<path d="M77.7253 99.6123H74.0977V100.238H77.7253V99.6123Z" fill="white"/>
<path d="M75.9117 110.29C76.8515 110.29 77.6134 109.528 77.6134 108.588C77.6134 107.648 76.8515 106.886 75.9117 106.886C74.9719 106.886 74.21 107.648 74.21 108.588C74.21 109.528 74.9719 110.29 75.9117 110.29Z" fill="#C2668F"/>
<path d="M83.3049 95.5588H78.9014V111.072H83.3049V95.5588Z" fill="#B9B9EA"/>
<path d="M82.0046 96.8596H80.2031V98.6611H82.0046V96.8596Z" fill="white"/>
<path d="M82.8298 99.6123H79.2021V100.238H82.8298V99.6123Z" fill="white"/>
<path d="M81.0162 110.29C81.956 110.29 82.7179 109.528 82.7179 108.588C82.7179 107.648 81.956 106.886 81.0162 106.886C80.0763 106.886 79.3145 107.648 79.3145 108.588C79.3145 109.528 80.0763 110.29 81.0162 110.29Z" fill="#C2668F"/>
<path d="M88.5217 95.5588H84.1182V111.072H88.5217V95.5588Z" fill="#B9B9EA"/>
<path d="M87.2214 96.8596H85.4199V98.6611H87.2214V96.8596Z" fill="white"/>
<path d="M88.0466 99.6123H84.4189V100.238H88.0466V99.6123Z" fill="white"/>
<path d="M86.233 110.29C87.1728 110.29 87.9347 109.528 87.9347 108.588C87.9347 107.648 87.1728 106.886 86.233 106.886C85.2931 106.886 84.5312 107.648 84.5312 108.588C84.5312 109.528 85.2931 110.29 86.233 110.29Z" fill="white"/>
<path d="M98.7277 95.5588H94.3242V111.072H98.7277V95.5588Z" fill="#B9B9EA"/>
<path d="M97.4274 96.8596H95.626V98.6611H97.4274V96.8596Z" fill="white"/>
<path d="M98.2526 99.6123H94.625V100.238H98.2526V99.6123Z" fill="white"/>
<path d="M96.438 110.29C97.3779 110.29 98.1398 109.528 98.1398 108.588C98.1398 107.648 97.3779 106.886 96.438 106.886C95.4982 106.886 94.7363 107.648 94.7363 108.588C94.7363 109.528 95.4982 110.29 96.438 110.29Z" fill="white"/>
<path d="M103.832 95.5588H99.4287V111.072H103.832V95.5588Z" fill="#B9B9EA"/>
<path d="M102.531 96.8596H100.729V98.6611H102.531V96.8596Z" fill="white"/>
<path d="M103.356 99.6123H99.7285V100.238H103.356V99.6123Z" fill="white"/>
<path d="M101.543 110.29C102.482 110.29 103.244 109.528 103.244 108.588C103.244 107.648 102.482 106.886 101.543 106.886C100.603 106.886 99.8408 107.648 99.8408 108.588C99.8408 109.528 100.603 110.29 101.543 110.29Z" fill="#C2668F"/>
<path d="M109.049 95.5588H104.646V111.072H109.049V95.5588Z" fill="#B9B9EA"/>
<path d="M107.748 96.8596H105.946V98.6611H107.748V96.8596Z" fill="white"/>
<path d="M108.573 99.6123H104.945V100.238H108.573V99.6123Z" fill="white"/>
<path d="M106.759 110.29C107.699 110.29 108.461 109.528 108.461 108.588C108.461 107.648 107.699 106.886 106.759 106.886C105.82 106.886 105.058 107.648 105.058 108.588C105.058 109.528 105.82 110.29 106.759 110.29Z" fill="#C2668F"/>
<path d="M114.023 114.73H94.3242V129.588H114.023V114.73Z" fill="#A989C6"/>
<path d="M105.89 116.129H101.687V117.677H105.89V116.129Z" fill="#FFC3A9"/>
<path d="M214.781 143.255L206.548 179.964H130.128L120.504 143.913L123.751 143.812L132.332 177.12L204.345 177.323L212.578 143.255H214.781Z" fill="#252168"/>
<path d="M213.858 143.255L205.626 179.964H129.206L119.581 143.913L122.828 143.812L131.409 177.12L203.422 177.323L211.655 143.255H213.858Z" fill="#3B3188"/>
<path d="M112.733 144.534H218.607V141.459H112.733V144.534Z" fill="#7F335B"/>
<path d="M127.022 144.534H226.692V141.459H127.022V144.534Z" fill="#C2668F"/>
<path d="M249.844 187.196C259.27 187.196 266.911 185.601 266.911 183.634C266.911 181.667 259.27 180.072 249.844 180.072C240.418 180.072 232.777 181.667 232.777 183.634C232.777 185.601 240.418 187.196 249.844 187.196Z" fill="#867CBF"/>
<path d="M256.962 165.954L251.721 165.048L244.12 165.239L252.178 165.954H256.962Z" fill="#04175B"/>
<path d="M251.206 165.559C251.206 165.559 240.996 129.984 252.728 123.999C260.822 119.874 251.206 165.559 251.206 165.559Z" fill="#7180EA"/>
<path d="M251.206 160.828C251.206 160.453 249.857 132.256 252.919 127.292" stroke="white" stroke-width="0.213261" stroke-linecap="round" stroke-linejoin="round"/>
<path d="M250.714 128.04L251.899 130.488L254.424 128.814" stroke="white" stroke-width="0.213261" stroke-linecap="round" stroke-linejoin="round"/>
<path d="M248.846 133.51L251.218 136.367L254.423 134.498" stroke="white" stroke-width="0.213261" stroke-linecap="round" stroke-linejoin="round"/>
<path d="M248.302 139.941L250.956 142.663L254.424 140.583" stroke="white" stroke-width="0.213261" stroke-linecap="round" stroke-linejoin="round"/>
<path d="M251.914 165.692C251.914 165.692 268.012 144.511 276.006 154.178C279.639 158.576 251.914 165.692 251.914 165.692Z" fill="#7180EA"/>
<path d="M251.914 165.692C251.914 165.692 269.183 153.907 274.823 155.262" stroke="white" stroke-width="0.213261" stroke-linecap="round" stroke-linejoin="round"/>
<path d="M264.975 155.49L263.015 158.9C263.015 158.9 266.945 158.841 267.655 159.319" stroke="white" stroke-width="0.213261" stroke-linecap="round" stroke-linejoin="round"/>
<path d="M271.037 154.128L269.756 155.901L272.355 157.11" stroke="white" stroke-width="0.213261" stroke-linecap="round" stroke-linejoin="round"/>
<path d="M259.605 159.249L258.776 161.315L261.505 161.8" stroke="white" stroke-width="0.213261" stroke-linecap="round" stroke-linejoin="round"/>
<path d="M251.316 165.622C251.316 165.622 256.159 141.573 264.794 141.239C270.52 141.017 251.316 165.622 251.316 165.622Z" fill="#7180EA"/>
<path d="M251.316 165.622C251.316 165.622 259.487 146.552 264.349 143.16" stroke="white" stroke-width="0.213261" stroke-linecap="round" stroke-linejoin="round"/>
<path d="M261.708 142.951L261.755 145.803L264.202 145.083" stroke="white" stroke-width="0.213261" stroke-linecap="round" stroke-linejoin="round"/>
<path d="M259.339 146.374L259.644 148.838L262.382 148.476" stroke="white" stroke-width="0.213261" stroke-linecap="round" stroke-linejoin="round"/>
<path d="M257.587 149.197L257.874 151.811L260.277 151.539" stroke="white" stroke-width="0.213261" stroke-linecap="round" stroke-linejoin="round"/>
<path d="M256.105 152.637L256.476 154.383L258.277 154.241" stroke="white" stroke-width="0.213261" stroke-linecap="round" stroke-linejoin="round"/>
<path d="M250.986 165.704C250.986 165.704 221.06 134.237 236.214 137.13C248.331 139.447 250.986 165.704 250.986 165.704Z" fill="#7180EA"/>
<path d="M234.354 139.338C234.354 139.338 245.268 146.784 250.843 165.553" stroke="white" stroke-width="0.243831" stroke-linecap="round" stroke-linejoin="round"/>
<path d="M236.47 139.019L237.939 142.25L234.604 142.064" stroke="white" stroke-width="0.243831" stroke-linecap="round" stroke-linejoin="round"/>
<path d="M241.073 142.631L241.311 146.12L237.133 146.526" stroke="white" stroke-width="0.243831" stroke-linecap="round" stroke-linejoin="round"/>
<path d="M244.433 147.057V150.865L240.493 150.387" stroke="white" stroke-width="0.243831" stroke-linecap="round" stroke-linejoin="round"/>
<path d="M246.672 152.652V155.096L243.396 154.388" stroke="white" stroke-width="0.243831" stroke-linecap="round" stroke-linejoin="round"/>
<path d="M252.178 185.674L256.514 183.034L256.961 165.954H252.178V185.674Z" fill="#5B4DA0"/>
<path d="M252.178 185.674L245.389 184.655L244.12 165.239L252.178 165.954V185.674Z" fill="#3B3182"/>
<path d="M151.206 192.035C165.373 192.035 176.858 189.638 176.858 186.681C176.858 183.724 165.373 181.327 151.206 181.327C137.039 181.327 125.555 183.724 125.555 186.681C125.555 189.638 137.039 192.035 151.206 192.035Z" fill="#867CBF"/>
<path d="M152.312 180.43L152.919 184.931L156.199 183.414L155.409 179.355L152.312 180.43Z" fill="white"/>
<path d="M160.683 185.076C159.385 185.052 158.049 182.747 156.753 182.615C155.375 183.614 153.807 184.265 152.033 183.607C151.596 185.026 151.951 186.325 152.855 187.541C152.855 187.541 154.365 187.478 155.776 187.28C156.012 187.247 155.833 186.348 156.067 186.416C157.798 186.92 159.447 187.569 160.664 187.373C161.733 187.2 163.168 186.388 163.05 185.818C162.931 185.248 161.911 185.099 160.683 185.076Z" fill="#2E0446"/>
<path d="M154.753 126.242C154.753 126.242 157.109 150.206 157.155 164.953C157.2 179.7 155.834 180.238 155.834 180.238L151.539 181.455C151.539 181.455 148.304 150.018 146.898 142.484C145.491 134.95 145.54 125.453 145.54 125.453L154.753 126.242Z" fill="#51103D"/>
<path d="M138.07 178.982L136.802 183.924L140.524 184.484L141.226 180.552L138.07 178.982Z" fill="white"/>
<path d="M138.94 128.491C138.94 128.491 134.348 134.387 138.94 142.684C140.494 155.276 137.139 180.22 137.139 180.22L141.557 181.457C141.557 181.457 148.934 148.378 149.034 143.741C149.137 138.97 149.611 125.969 149.611 125.969L138.94 128.491Z" fill="#992E6E"/>
<path d="M144.265 186.035C143.067 185.535 142.678 182.905 141.526 182.309C139.876 182.729 138.178 182.754 136.773 181.492C135.843 182.647 135.691 183.981 136.083 185.441C136.083 185.441 137.509 185.938 138.893 186.273C139.125 186.33 139.29 185.43 139.484 185.58C140.905 186.684 142.198 187.892 143.401 188.157C144.459 188.391 146.094 188.166 146.193 187.594C146.291 187.022 145.398 186.507 144.265 186.035Z" fill="#2E0446"/>
<path d="M137.654 129.456C137.654 129.456 151.203 131.501 155.18 128.502V125.971L138.272 127.286L137.654 129.456Z" fill="#2C0445"/>
<path d="M145.084 126.637C144.938 126.637 144.72 126.491 144.58 126.418C142.564 126.273 140.334 126.058 139.183 124.188C138.463 123.108 138.463 121.741 138.103 120.518C137.885 119.726 137.958 119.007 137.672 118.215C136.327 113.374 136.176 108.534 136.22 103.632C136.188 103.705 136.159 103.778 136.132 103.857C135.277 106.325 136.975 119.048 137.092 121.512C137.21 123.976 136.857 127.012 137.954 128.153C139.052 129.294 151.797 128.801 154.213 127.421C156.065 126.363 156.454 124.994 156.267 123.579C154.65 124.824 153.058 125.975 151.056 126.491C149.185 127.001 147.098 126.637 145.084 126.637Z" fill="#EDA666"/>
<path d="M155.619 107.349C157.399 99.1837 143.35 99.6336 142.073 100.174C140.836 100.698 137.221 101.355 136.22 103.64C136.176 108.54 136.327 113.381 137.672 118.222C137.963 119.014 137.89 119.733 138.103 120.525C138.463 121.749 138.463 123.116 139.183 124.195C140.334 126.066 142.564 126.282 144.58 126.426C144.725 126.499 144.939 126.644 145.083 126.644C147.098 126.644 149.185 127.008 151.052 126.499C153.054 125.983 154.647 124.833 156.263 123.587C156.2 123.146 156.098 122.712 155.958 122.289C155.099 119.601 155.619 107.349 155.619 107.349Z" fill="#F7C084"/>
<path d="M148.381 98.2708L147.477 93.7181L144.546 92.4509L144.082 97.385C144.778 97.7664 145.377 98.3189 146.239 98.5038C146.957 98.6967 147.722 98.6136 148.381 98.2708Z" fill="#E07777"/>
<path d="M146.235 98.5037C145.373 98.3188 144.774 97.7664 144.078 97.385L143.681 101.614C143.681 101.614 145.184 103.054 147.049 102.882C148.915 102.711 148.916 100.962 148.916 100.962L148.381 98.2686C147.721 98.6131 146.955 98.697 146.235 98.5037Z" fill="#EF8F8F"/>
<path d="M146.947 106.57L148.403 106.478L151.203 117.722C151.203 117.722 150.013 124.01 149.841 124.292C149.668 124.573 148.822 124.422 148.822 124.422L146.603 116.156L146.947 106.57Z" fill="#2C0445"/>
<path d="M134.253 106.99C133.444 110.738 133.307 117.948 134.171 121.364C134.713 122.831 136.259 122.711 137.336 121.751C136.827 121.607 136.354 121.359 135.945 121.023C134.326 116.557 133.992 111.738 134.253 106.99Z" fill="#EDA666"/>
<path d="M138.394 118.703C139.202 114.487 138.853 109.871 138.949 107.13C139.114 102.427 137.428 102.506 137.428 102.506C137.428 102.506 135.863 102.084 134.581 105.774C134.448 106.171 134.338 106.576 134.253 106.986C133.989 111.735 134.325 116.554 135.945 121.024C136.353 121.359 136.827 121.607 137.336 121.751C137.761 121.379 138.083 120.902 138.268 120.367C138.454 119.833 138.497 119.259 138.394 118.703Z" fill="#F7C084"/>
<path d="M148.484 98.3059C148.484 98.3059 150.199 98.3787 150.877 100.844C151.771 104.097 151.372 105.071 151.372 105.071L147.557 102.899L148.484 98.3059Z" fill="white"/>
<path d="M143.758 98.3291L146.894 102.854L145.22 105.79C145.22 105.79 143.368 103.552 142.441 101.621C141.669 99.9697 143.758 98.3291 143.758 98.3291Z" fill="white"/>
<path d="M150.397 88.0767C148.98 88.6932 147.361 88.9159 145.803 89.2929C143.846 89.7216 141.473 89.579 139.921 90.8942C139.995 91.275 140.094 91.6506 140.216 92.0187C141.44 95.6733 144.943 98.3721 147.887 97.7418C150.634 97.1544 151.757 92.1082 150.534 88.453C150.491 88.3263 150.445 88.2009 150.397 88.0767Z" fill="#EF8F8F"/>
<path d="M150.396 88.0766C149.079 84.6557 145.909 82.6708 143.16 83.6207C140.603 84.5043 139.281 87.6238 139.92 90.8992C141.472 89.5818 143.846 89.7244 145.803 89.2979C147.361 88.9158 148.979 88.6931 150.396 88.0766Z" fill="#CC7676"/>
<path d="M142.559 96.6194C142.559 96.6194 143.231 96.6448 143.177 96.4811C143.122 96.3173 141.553 91.8716 142.182 90.8526C142.81 89.8336 143.433 91.8053 143.732 91.3017C144.03 90.798 143.744 89.7288 144.03 88.9725C144.316 88.2163 155.067 89.1334 150.192 80.7878C149.095 82.4444 146.219 82.3833 144.545 82.3389C142.871 82.2945 137.369 85.9134 138.399 89.2047C139.429 92.4961 141.655 95.7649 142.559 96.6194Z" fill="#350D1D"/>
<path d="M142.402 93.1842C143.043 93.1127 143.496 92.4547 143.414 91.7144C143.332 90.9741 142.745 90.4319 142.103 90.5033C141.462 90.5747 141.008 91.2327 141.091 91.973C141.173 92.7133 141.76 93.2556 142.402 93.1842Z" fill="#EF8F8F"/>
<path d="M147.723 102.798L148.872 104.45L148.347 105.994L146.781 106.194L145.946 104.662L146.895 102.853L147.723 102.798Z" fill="#2C0445"/>
<path d="M147.513 97.5445C147.513 97.5445 150.583 96.5255 150.927 96.7548C151.271 96.9841 153.461 102.627 153.461 102.627L151.298 103.34C151.298 103.34 150.758 100.069 150.295 100.086C149.831 100.103 150.048 101.238 149.159 100.254C148.27 99.2688 147.727 98.4478 147.976 98.2651C148.226 98.0824 149.915 97.6901 149.464 97.5693C149.013 97.4484 147.94 98.0635 147.669 97.9186C147.397 97.7738 147.513 97.5445 147.513 97.5445Z" fill="#E57A7A"/>
<path d="M151.207 103.478L150.849 102.212L152.216 98.998L153.122 101.238L151.207 103.478Z" fill="white"/>
<path d="M151.207 130.027L148.905 130.218V128.793L151.128 128.293L151.207 130.027Z" fill="white"/>
<path d="M147.126 94.1367L149.259 93.585C149.259 93.585 149.751 94.604 148.298 94.9228C147.22 95.1593 147.126 94.1367 147.126 94.1367Z" fill="#FFFEEA"/>
<path d="M146.699 91.8872C146.97 91.8561 147.166 91.6156 147.135 91.35C147.105 91.0844 146.86 90.8943 146.588 90.9254C146.317 90.9565 146.121 91.197 146.152 91.4626C146.182 91.7282 146.427 91.9182 146.699 91.8872Z" fill="#350D1D"/>
<path d="M149.191 90.9001C149.425 90.8733 149.594 90.6661 149.568 90.4372C149.542 90.2084 149.331 90.0446 149.097 90.0714C148.863 90.0982 148.694 90.3054 148.72 90.5342C148.746 90.7631 148.957 90.9269 149.191 90.9001Z" fill="#350D1D"/>
<path d="M144.768 90.769C144.768 90.769 145.714 89.75 145.851 89.8228C146.207 90.0077 145.887 90.3833 145.705 90.523C145.523 90.6628 144.795 90.8942 144.768 90.769Z" fill="#350D1D"/>
<path d="M148.652 89.4886C148.652 89.4886 150.035 89.2353 149.816 88.8372C149.778 88.7644 148.071 89.132 148.652 89.4886Z" fill="#350D1D"/>
<path d="M148.147 90.7537C148.147 90.7537 149.145 92.1031 149.127 92.2749C149.109 92.4466 148.168 93.1206 147.984 93.0398C147.8 92.9591 147.937 92.8477 148.022 92.8033C148.108 92.7589 148.805 92.4306 148.806 92.3054C148.806 92.1802 148.047 90.8264 148.147 90.7537Z" fill="#B55050"/>
<path d="M153.789 113.687C154.149 114.479 154.437 115.414 155.084 115.918C155.804 116.493 157.027 116.35 157.675 115.626C158.037 115.236 158.426 114.871 158.839 114.535C158.663 111.807 155.433 103.005 153.579 100.806C152.221 99.5504 152.542 101.341 151.082 102.971C151.295 105.384 151.596 107.731 152.495 110.012C152.999 111.168 153.287 112.464 153.789 113.687Z" fill="#F7C084"/>
<path d="M157.677 115.63C157.029 116.35 155.806 116.494 155.086 115.921C154.438 115.418 154.151 114.482 153.791 113.691C153.287 112.468 152.999 111.172 152.496 110.021C151.597 107.74 151.296 105.394 151.083 102.98C150.95 103.129 150.808 103.27 150.657 103.402C151.24 106.542 152.807 113.956 153.527 115.844C154.764 119.083 158.894 117.671 158.848 114.718C158.848 114.664 158.844 114.605 158.84 114.544C158.428 114.879 158.039 115.242 157.677 115.63Z" fill="#EDA666"/>
<path d="M151.286 116.674C151.286 116.674 152.49 115.669 152.944 115.201C153.397 114.733 153.869 115.274 153.343 115.983C152.818 116.692 155.662 115.872 155.972 115.624C156.282 115.376 157.355 115.755 156.617 117.14C155.88 118.525 154.23 118.706 153.448 118.705C152.666 118.705 150.735 118.537 150.735 118.537L150.044 117.373L151.286 116.674Z" fill="#E57A7A"/>
<path d="M150.3 116.498L151.207 116.216L151.964 118.705L151.207 118.833L150.3 116.498Z" fill="white"/>
<path d="M143.932 120.45C141.485 121.385 138.248 122.896 135.945 121.026C135.799 120.618 135.663 120.208 135.535 119.795C133.611 121.352 133.006 123.373 138.617 123.373C140.72 123.373 149.03 120.563 151.686 118.844C151.598 118.678 151.51 118.512 151.426 118.346C149.137 118.663 146.88 119.329 144.724 120.165C144.508 120.304 144.148 120.304 143.932 120.45Z" fill="#EDA666"/>
<path d="M148.544 116.713C145.585 117.435 139.433 117.736 137.683 118.499C136.913 118.836 136.191 119.272 135.534 119.795C135.661 120.208 135.798 120.618 135.945 121.026C138.248 122.896 141.485 121.385 143.932 120.45C144.15 120.305 144.508 120.305 144.723 120.159C146.88 119.326 149.136 118.66 151.425 118.339C151.052 117.611 150.731 116.864 150.746 116.004C150.142 116.13 149.414 116.354 148.544 116.713Z" fill="#F7C084"/>
<path d="M201.981 52.7598H172.707V94.5625H201.981V52.7598Z" fill="#F7C084"/>
<path d="M179.538 64.1688C181.776 64.1688 183.591 62.3541 183.591 60.1154C183.591 57.8768 181.776 56.062 179.538 56.062C177.299 56.062 175.484 57.8768 175.484 60.1154C175.484 62.3541 177.299 64.1688 179.538 64.1688Z" fill="white"/>
<path d="M199.054 56.9631H190.04V57.7136H199.054V56.9631Z" fill="white"/>
<path d="M197.632 56.9631H190.04V57.7136H197.632V56.9631Z" fill="#A9A9FF"/>
<path d="M199.054 59.365H190.04V60.1154H199.054V59.365Z" fill="white"/>
<path d="M199.054 61.7668H190.04V62.5173H199.054V61.7668Z" fill="white"/>
<path d="M199.054 64.1689H190.04V64.9194H199.054V64.1689Z" fill="white"/>
<path d="M199.054 66.5708H190.04V67.3212H199.054V66.5708Z" fill="white"/>
<path d="M187.578 56.9631H186.219V57.7136H187.578V56.9631Z" fill="white"/>
<path d="M187.578 59.365H186.219V60.1154H187.578V59.365Z" fill="white"/>
<path d="M187.578 61.7668H186.219V62.5173H187.578V61.7668Z" fill="white"/>
<path d="M187.578 64.1689H186.219V64.9194H187.578V64.1689Z" fill="white"/>
<path d="M187.578 66.5708H186.219V67.3212H187.578V66.5708Z" fill="white"/>
<path d="M183.591 70.0986H176.686V75.8035H183.591V70.0986Z" fill="white"/>
<path d="M183.345 70.3752H176.962V75.6485H183.345V70.3752Z" fill="#EAF1F9"/>
<path d="M183.591 77.0039H176.686V82.7088H183.591V77.0039Z" fill="white"/>
<path d="M183.591 84.3564H176.686V90.0614H183.591V84.3564Z" fill="white"/>
<path d="M199.054 74.3406H186.219V74.9978H199.054V74.3406Z" fill="white"/>
<path d="M199.254 72.9512H188.695V73.4694H199.254V72.9512Z" fill="white"/>
<path d="M199.054 76.4136H186.219V76.9697H199.054V76.4136Z" fill="white"/>
<path d="M199.054 78.2834H186.219V78.8395H199.054V78.2834Z" fill="white"/>
<path d="M199.054 80.1538H186.219V80.7099H199.054V80.1538Z" fill="white"/>
<path d="M199.054 82.0237H186.219V82.5798H199.054V82.0237Z" fill="white"/>
<path d="M199.054 83.8943H186.219V84.4504H199.054V83.8943Z" fill="white"/>
<path d="M199.054 85.7642H186.219V86.3202H199.054V85.7642Z" fill="white"/>
<path d="M199.054 87.6348H186.219V88.1908H199.054V87.6348Z" fill="white"/>
<path d="M199.054 89.5054H186.219V90.0615H199.054V89.5054Z" fill="white"/>
<path d="M198.316 59.365H190.04V60.1154H198.316V59.365Z" fill="#A9A9FF"/>
<path d="M196.298 61.7668H190.04V62.5173H196.298V61.7668Z" fill="#A9A9FF"/>
<path d="M194.075 64.1689H190.04V64.9194H194.075V64.1689Z" fill="#A9A9FF"/>
<path d="M195.444 66.5708H190.04V67.3212H195.444V66.5708Z" fill="#A9A9FF"/>
<path d="M183.345 77.22H176.962V82.4933H183.345V77.22Z" fill="#EAF1F9"/>
<path d="M183.345 84.572H176.962V89.8453H183.345V84.572Z" fill="#EAF1F9"/>
<path d="M201.981 98.6145H172.707V140.417H201.981V98.6145Z" fill="white"/>
<path d="M172.708 140.417H184.961V98.6145H172.708V140.417Z" fill="#FCF1ED"/>
<path d="M179.538 109.844C181.776 109.844 183.591 108.029 183.591 105.79C183.591 103.552 181.776 101.737 179.538 101.737C177.299 101.737 175.484 103.552 175.484 105.79C175.484 108.029 177.299 109.844 179.538 109.844Z" fill="#FFC3A9"/>
<path d="M187.816 113.039C188.699 113.039 189.414 112.324 189.414 111.441C189.414 110.559 188.699 109.844 187.816 109.844C186.934 109.844 186.219 110.559 186.219 111.441C186.219 112.324 186.934 113.039 187.816 113.039Z" fill="#A9A9FF"/>
<path d="M192.636 113.039C193.518 113.039 194.233 112.324 194.233 111.441C194.233 110.559 193.518 109.844 192.636 109.844C191.753 109.844 191.038 110.559 191.038 111.441C191.038 112.324 191.753 113.039 192.636 113.039Z" fill="#A9A9FF"/>
<path d="M197.456 113.039C198.338 113.039 199.054 112.324 199.054 111.441C199.054 110.559 198.338 109.844 197.456 109.844C196.574 109.844 195.858 110.559 195.858 111.441C195.858 112.324 196.574 113.039 197.456 113.039Z" fill="#A9A9FF"/>
<path d="M199.054 102.896H186.219V107.578H199.054V102.896Z" fill="#FFC3A9"/>
<path d="M199.054 115.385H186.219V116.186H199.054V115.385Z" fill="#FFC3A9"/>
<path d="M199.054 117.611H186.219V118.411H199.054V117.611Z" fill="#FFC3A9"/>
<path d="M199.054 119.836H186.219V120.636H199.054V119.836Z" fill="#FFC3A9"/>
<path d="M199.054 122.062H186.219V122.862H199.054V122.062Z" fill="#FFC3A9"/>
<path d="M199.054 124.287H186.219V125.088H199.054V124.287Z" fill="#FFC3A9"/>
<path d="M183.591 115.385H176.11V116.186H183.591V115.385Z" fill="#FFC3A9"/>
<path d="M183.591 117.611H176.11V118.411H183.591V117.611Z" fill="#FFC3A9"/>
<path d="M183.591 119.836H176.11V120.636H183.591V119.836Z" fill="#FFC3A9"/>
<path d="M183.591 122.062H176.11V122.862H183.591V122.062Z" fill="#FFC3A9"/>
<path d="M183.591 124.287H176.11V125.088H183.591V124.287Z" fill="#FFC3A9"/>
<path d="M183.591 128.04H176.11V128.841H183.591V128.04Z" fill="#FFC3A9"/>
<path d="M183.591 130.265H176.11V131.066H183.591V130.265Z" fill="#FFC3A9"/>
<path d="M183.591 132.491H176.11V133.292H183.591V132.491Z" fill="#FFC3A9"/>
<path d="M183.591 134.717H176.11V135.517H183.591V134.717Z" fill="#FFC3A9"/>
<path d="M183.591 136.942H176.11V137.743H183.591V136.942Z" fill="#FFC3A9"/>
<path d="M182.79 115.334H176.11V116.135H182.79V115.334Z" fill="#A9A9FF"/>
<path d="M182.414 117.559H176.11V118.36H182.414V117.559Z" fill="#A9A9FF"/>
<path d="M182.978 119.785H176.11V120.585H182.978V119.785Z" fill="#A9A9FF"/>
<path d="M181.473 122.01H176.11V122.811H181.473V122.01Z" fill="#A9A9FF"/>
<path d="M179.851 124.236H176.11V125.037H179.851V124.236Z" fill="#A9A9FF"/>
<path d="M182.26 127.988H176.11V128.789H182.26V127.988Z" fill="#A9A9FF"/>
<path d="M180.088 130.214H176.11V131.015H180.088V130.214Z" fill="#A9A9FF"/>
<path d="M178.789 132.44H176.11V133.241H178.789V132.44Z" fill="#A9A9FF"/>
<path d="M177.352 134.666H176.11V135.466H177.352V134.666Z" fill="#A9A9FF"/>
<path d="M178.258 136.891H176.11V137.692H178.258V136.891Z" fill="#A9A9FF"/>
<path d="M199.054 126.513H186.219V127.314H199.054V126.513Z" fill="#FFC3A9"/>
<path d="M199.054 128.738H186.219V129.539H199.054V128.738Z" fill="#FFC3A9"/>
<path d="M199.054 130.964H186.219V131.765H199.054V130.964Z" fill="#A9A9FF"/>
<path d="M199.054 133.19H186.219V133.99H199.054V133.19Z" fill="#A9A9FF"/>
<path d="M199.054 136.942H195.144V137.743H199.054V136.942Z" fill="#A9A9FF"/>
<path d="M201.981 146.031H172.707V187.834H201.981V146.031Z" fill="#7180EA"/>
<path d="M179.538 157.132C181.776 157.132 183.591 155.317 183.591 153.078C183.591 150.84 181.776 149.025 179.538 149.025C177.299 149.025 175.484 150.84 175.484 153.078C175.484 155.317 177.299 157.132 179.538 157.132Z" fill="white"/>
<path d="M199.053 149.961H187.631V150.847H199.053V149.961Z" fill="white"/>
<path d="M199.053 151.844H187.631V152.73H199.053V151.844Z" fill="white"/>
<path d="M199.053 153.706H187.631V154.591H199.053V153.706Z" fill="white"/>
<path d="M199.053 155.589H187.631V156.475H199.053V155.589Z" fill="white"/>
<path d="M193.499 172.523H188.199C187.885 172.523 187.631 172.777 187.631 173.09V173.265C187.631 173.579 187.885 173.833 188.199 173.833H193.499C193.812 173.833 194.067 173.579 194.067 173.265V173.09C194.067 172.777 193.812 172.523 193.499 172.523Z" fill="white"/>
<path d="M193.499 160.442H188.199C187.885 160.442 187.631 160.696 187.631 161.01V161.184C187.631 161.498 187.885 161.752 188.199 161.752H193.499C193.812 161.752 194.067 161.498 194.067 161.184V161.01C194.067 160.696 193.812 160.442 193.499 160.442Z" fill="white"/>
<path d="M191.651 160.442H188.105C187.843 160.442 187.631 160.654 187.631 160.916V161.277C187.631 161.54 187.843 161.752 188.105 161.752H191.651C191.913 161.752 192.125 161.54 192.125 161.277V160.916C192.125 160.654 191.913 160.442 191.651 160.442Z" fill="#FFC3A9"/>
<path d="M192.581 172.523H188.154C187.865 172.523 187.631 172.757 187.631 173.046V173.31C187.631 173.599 187.865 173.833 188.154 173.833H192.581C192.87 173.833 193.104 173.599 193.104 173.31V173.046C193.104 172.757 192.87 172.523 192.581 172.523Z" fill="#FFC3A9"/>
<path d="M181.978 172.523H176.678C176.365 172.523 176.11 172.777 176.11 173.09V173.265C176.11 173.579 176.365 173.833 176.678 173.833H181.978C182.292 173.833 182.546 173.579 182.546 173.265V173.09C182.546 172.777 182.292 172.523 181.978 172.523Z" fill="white"/>
<path d="M181.06 172.523H176.634C176.345 172.523 176.11 172.757 176.11 173.046V173.31C176.11 173.599 176.345 173.833 176.634 173.833H181.06C181.35 173.833 181.584 173.599 181.584 173.31V173.046C181.584 172.757 181.35 172.523 181.06 172.523Z" fill="#FFC3A9"/>
<path d="M181.854 160.442H176.554C176.241 160.442 175.986 160.696 175.986 161.01V161.184C175.986 161.498 176.241 161.752 176.554 161.752H181.854C182.168 161.752 182.422 161.498 182.422 161.184V161.01C182.422 160.696 182.168 160.442 181.854 160.442Z" fill="white"/>
<path d="M181.225 160.459H176.524C176.227 160.459 175.986 160.7 175.986 160.997V161.231C175.986 161.528 176.227 161.769 176.524 161.769H181.225C181.522 161.769 181.763 161.528 181.763 161.231V160.997C181.763 160.7 181.522 160.459 181.225 160.459Z" fill="#FFC3A9"/>
<path d="M199.053 175.905H187.631V176.605H199.053V175.905Z" fill="white"/>
<path d="M199.053 178.466H187.631V179.165H199.053V178.466Z" fill="#A9A9FF"/>
<path d="M199.053 181.026H187.631V181.726H199.053V181.026Z" fill="#A9A9FF"/>
<path d="M199.053 183.587H187.631V184.286H199.053V183.587Z" fill="#A9A9FF"/>
<path d="M183.161 167.296H176.11V167.855H183.161V167.296Z" fill="#A9A9FF"/>
<path d="M183.161 169.341H176.11V169.9H183.161V169.341Z" fill="#A9A9FF"/>
<path d="M183.161 163.735H176.11V164.294H183.161V163.735Z" fill="#A9A9FF"/>
<path d="M183.161 162.248H176.11V162.807H183.161V162.248Z" fill="white"/>
<path d="M194.067 162.248H187.631V162.807H194.067V162.248Z" fill="white"/>
<path d="M183.161 165.78H176.11V166.339H183.161V165.78Z" fill="#A9A9FF"/>
<path d="M199.053 167.296H187.631V167.855H199.053V167.296Z" fill="#A9A9FF"/>
<path d="M199.053 169.341H187.631V169.9H199.053V169.341Z" fill="#A9A9FF"/>
<path d="M199.053 163.735H187.631V164.294H199.053V163.735Z" fill="#A9A9FF"/>
<path d="M199.053 165.78H187.631V166.339H199.053V165.78Z" fill="#A9A9FF"/>
<path d="M183.161 175.905H176.11V176.456H183.161V175.905Z" fill="white"/>
<path d="M183.161 177.923H176.11V178.474H183.161V177.923Z" fill="#A9A9FF"/>
<path d="M183.161 179.941H176.11V180.492H183.161V179.941Z" fill="#A9A9FF"/>
<path d="M183.161 181.717H176.11V182.268H183.161V181.717Z" fill="#A9A9FF"/>
<path d="M183.161 183.735H176.11V184.286H183.161V183.735Z" fill="#A9A9FF"/>
<path d="M232.657 92.2684C238.988 92.2684 244.12 87.249 244.12 81.0573C244.12 74.8656 238.988 69.8462 232.657 69.8462C226.326 69.8462 221.194 74.8656 221.194 81.0573C221.194 87.249 226.326 92.2684 232.657 92.2684Z" fill="#CE96EA"/>
<path d="M232.657 90.9059C238.218 90.9059 242.727 86.4965 242.727 81.0573C242.727 75.6181 238.218 71.2087 232.657 71.2087C227.095 71.2087 222.587 75.6181 222.587 81.0573C222.587 86.4965 227.095 90.9059 232.657 90.9059Z" fill="#E2C4F2"/>
<path d="M232.657 81.4532L239.94 77.0752L232.179 80.9328C232.179 80.9328 231.9 81.4532 232.657 81.4532Z" fill="white"/>
<path d="M234.424 89.2346L231.931 81.3389C231.931 81.3389 232.185 80.7668 232.528 81.2544C232.872 81.7421 234.424 89.2346 234.424 89.2346Z" fill="white"/>
<path d="M232.298 81.855C232.749 81.855 233.114 81.4978 233.114 81.0572C233.114 80.6167 232.749 80.2595 232.298 80.2595C231.848 80.2595 231.482 80.6167 231.482 81.0572C231.482 81.4978 231.848 81.855 232.298 81.855Z" fill="white"/>
<path d="M233.354 71.8994H232.537V72.9795H233.354V71.8994Z" fill="white"/>
<path d="M223.229 80.368V81.1665H224.333V80.368H223.229Z" fill="white"/>
<path d="M231.89 90.1475H232.707V89.0673H231.89V90.1475Z" fill="white"/>
<path d="M241.603 81.943V81.1445H240.498V81.943H241.603Z" fill="white"/>
</g>
</g>
</g>
<defs>
<clipPath id="clip0_352_243">
<rect width="340.66" height="227.09" fill="white" transform="translate(0.668945 0.501953)"/>
</clipPath>
<clipPath id="clip1_352_243">
<rect width="340.66" height="227.09" fill="white" transform="translate(1 12)"/>
</clipPath>
<clipPath id="clip2_352_243">
<rect width="340.635" height="227.09" fill="white" transform="translate(1.0127 12)"/>
</clipPath>
</defs>
</svg>
