<svg width="342" height="228" viewBox="0 0 342 228" fill="none" xmlns="http://www.w3.org/2000/svg">
<g clip-path="url(#clip0_352_482)">
<g clip-path="url(#clip1_352_482)">
<g clip-path="url(#clip2_352_482)">
<path d="M299.368 113.595C288.11 86.7506 265.348 66.9399 226.274 79.055C218.225 81.5494 205.635 79.9561 189.445 69.6519C188.623 69.1288 187.806 68.5829 186.994 68.0142C186.551 67.7027 186.11 67.3847 185.67 67.06C180.157 62.9841 175.001 57.836 170.753 51.4964C168.346 47.9148 165.475 44.6686 162.214 41.8428C160.195 40.0925 158.046 38.4973 155.787 37.071C154.34 36.1554 152.848 35.3036 151.311 34.5156C147.224 32.4157 142.836 30.7584 138.247 29.529C137.8 29.4097 137.353 29.2947 136.903 29.1826C135.858 28.923 134.803 28.6857 133.738 28.4707C133.01 28.3213 132.277 28.1832 131.538 28.0566C130.636 27.9003 129.728 27.7594 128.814 27.6337C126.324 27.2887 123.803 27.0551 121.251 26.9328C120.769 26.9095 120.285 26.8901 119.8 26.8746C119.491 26.8658 119.182 26.8564 118.873 26.8505C117.925 26.8302 116.976 26.8248 116.024 26.8345C92.2861 27.066 67.4496 36.515 52.3248 53.5147C44.7122 62.0764 39.559 72.5524 38.2503 84.7337C37.7685 89.2312 37.8078 93.9615 38.441 98.9138C38.4599 99.0652 38.4796 99.2136 38.5 99.3614C38.5313 99.6016 38.5662 99.8432 38.6026 100.084C38.7326 100.993 38.8848 101.909 39.059 102.833C39.4411 104.884 39.7017 107.034 40.5147 109.093C47.5465 126.9 43.1721 136.601 37.2648 144.597C25.5558 160.444 35.6075 181.9 54.5426 184.96C56.0853 185.209 57.6455 185.333 59.2081 185.331L135.46 185.308L173.516 185.298L249.358 185.276C287.298 185.265 313.572 148.787 299.895 114.879C299.724 114.452 299.548 114.024 299.368 113.595Z" fill="#E3F0FE"/>
<path d="M305.037 156.144C303.586 156.29 302.238 156.945 300.961 157.645C290.913 163.177 281.449 179.799 279.635 183.595L290.374 183.53C296.091 175.834 307.868 171.796 309.637 161.423C309.86 160.113 309.763 158.664 308.956 157.607C308.074 156.448 306.488 155.999 305.037 156.144Z" fill="#287064"/>
<path d="M300.885 135.526C294.189 131.327 287.691 140.811 284.715 145.52C280.217 152.64 276.922 160.513 274.394 168.52C274.03 169.68 270.709 183.586 270.642 183.586L272.942 183.573L279.638 183.533C279.638 183.533 289.012 164.749 298.207 153.538C302.56 148.23 305.513 138.43 300.885 135.526Z" fill="#39A08F"/>
<path d="M285.527 160.622C282.264 167.571 279.215 175.47 276.711 183.471L277.197 183.624C279.695 175.646 282.735 167.767 285.988 160.838C289.696 152.941 293.644 146.288 297.724 141.066L297.323 140.752C293.219 146.005 289.251 152.69 285.527 160.622Z" fill="#17574D"/>
<path d="M230.583 133.326C224.569 132.034 223.887 138.97 225.002 143.54C226.447 149.462 232.204 153.257 235.725 157.653C242.203 165.742 244.92 171.082 249.693 183.702L258.464 183.659C258.464 183.659 257.189 154.852 244.359 141.607C240.893 138.029 235.223 134.323 230.583 133.326Z" fill="#17574D"/>
<path d="M256.708 125.745C253.632 121.523 244.459 112.226 239.117 116.058C236.027 118.274 240.775 126.161 242.028 128.531C246.095 136.213 249.332 144.432 251.875 152.891C254.816 162.677 257.058 172.966 257.899 183.271C257.91 183.402 257.919 183.532 257.93 183.662L263.578 183.629C266.982 177.309 265.609 150.39 263.833 141.966C262.599 136.111 260.103 130.406 256.708 125.745Z" fill="#39A08F"/>
<path d="M270.289 132.298C263.57 145.41 262.983 168.554 264.209 183.624L272.288 183.576C277.035 178.186 293.737 133.023 289.406 116.294C287.913 110.527 277.907 117.431 270.289 132.298Z" fill="#17574D"/>
<path d="M229.051 137.968L228.804 138.327C235.455 142.905 241.337 149.648 245.812 157.826C250.2 165.843 253.008 174.792 253.935 183.708L254.372 183.663C253.439 174.69 250.612 165.685 246.198 157.617C241.687 149.379 235.758 142.584 229.051 137.968Z" fill="#39A08F"/>
<path d="M252.311 131.795C250.142 127.166 247.451 123.415 244.312 120.645L243.975 121.027C247.061 123.751 249.711 127.446 251.85 132.011C253.61 135.767 255.06 140.138 256.283 145.373C259.003 157.018 260.607 169.542 261.184 183.652L261.693 183.631C261.116 169.489 259.51 156.936 256.78 145.256C255.547 139.986 254.087 135.584 252.311 131.795Z" fill="#17574D"/>
<path d="M274.177 152.294C271.047 163.411 269.286 173.647 268.796 183.585L269.233 183.606C269.721 173.702 271.476 163.498 274.598 152.413C277.162 143.307 280.668 133.603 285.316 122.747L284.914 122.576C280.258 133.449 276.746 143.17 274.177 152.294Z" fill="#39A08F"/>
<path d="M297.677 165.619C293.957 169.265 288.612 175.309 284.275 183.399L284.66 183.605C288.968 175.568 294.278 169.563 297.975 165.94C301.978 162.013 305.008 159.961 305.035 159.941L304.791 159.577C304.764 159.598 301.711 161.667 297.677 165.619Z" fill="#17574D"/>
<path d="M170.347 201.489C240.585 201.489 297.523 195.412 297.523 187.916C297.523 180.42 240.585 174.343 170.347 174.343C100.11 174.343 43.1709 180.42 43.1709 187.916C43.1709 195.412 100.11 201.489 170.347 201.489Z" fill="#5EBCE0"/>
<path d="M182.686 29.1418H64.2246V183.219H182.686V29.1418Z" fill="#3784BF"/>
<path d="M178.435 33.3918H68.4746V178.968H178.435V33.3918Z" fill="#92D4F5"/>
<path d="M160.786 76.1679C167.876 69.0783 167.876 57.5838 160.786 50.4942C153.696 43.4046 142.202 43.4046 135.112 50.4942C128.023 57.5838 128.023 69.0783 135.112 76.1679C142.202 83.2576 153.696 83.2576 160.786 76.1679Z" fill="white"/>
<mask id="mask0_352_482" style="mask-type:luminance" maskUnits="userSpaceOnUse" x="129" y="45" width="38" height="37">
<path d="M160.786 76.1679C167.876 69.0783 167.876 57.5838 160.786 50.4942C153.696 43.4046 142.202 43.4046 135.112 50.4942C128.023 57.5838 128.023 69.0783 135.112 76.1679C142.202 83.2576 153.696 83.2576 160.786 76.1679Z" fill="white"/>
</mask>
<g mask="url(#mask0_352_482)">
<path d="M178.188 114.002C177.979 112.798 177.704 111.663 177.428 110.653C174.216 98.8725 171.911 92.0045 162.082 85.9793C157.19 82.9813 151.703 80.6762 147.426 79.1171C139.8 76.3367 131.195 78.5938 126.066 84.8839C125.82 85.1852 125.575 85.4975 125.333 85.8199C124.66 86.7116 124.047 87.6476 123.5 88.6214C121.206 92.725 119.847 98.1716 121.937 105.362C128.966 129.557 142.546 131.346 155.676 131.808C176.264 132.536 179.17 123.517 178.458 115.984C178.394 115.312 178.3 114.648 178.188 114.002Z" fill="#363636"/>
<path d="M178.224 114.001C178.043 112.956 177.793 111.859 177.463 110.647C174.27 98.929 171.981 92.0086 162.101 85.9536C157.037 82.8508 151.332 80.5078 147.439 79.0885C139.744 76.2834 131.144 78.6052 126.04 84.8662C125.784 85.1799 125.538 85.4951 125.305 85.8044C124.631 86.6974 124.018 87.6345 123.469 88.6096C122.208 90.8421 121.383 93.2945 121.04 95.8357C120.645 98.8373 120.935 102.049 121.903 105.38C125.08 116.315 129.855 123.558 136.501 127.524C142.507 131.108 149.266 131.627 155.676 131.852C156.446 131.88 157.198 131.893 157.932 131.893C166.284 131.893 172.173 130.132 175.456 126.652C177.899 124.061 178.923 120.473 178.499 115.99C178.433 115.346 178.343 114.677 178.224 114.001ZM175.397 126.593C172.128 130.061 166.258 131.813 157.928 131.813C157.197 131.813 156.446 131.8 155.677 131.773C149.277 131.548 142.528 131.03 136.535 127.455C129.905 123.499 125.141 116.269 121.97 105.353C121.005 102.031 120.715 98.8301 121.109 95.8386C121.45 93.3065 122.272 90.8629 123.529 88.6387C124.077 87.6661 124.688 86.7314 125.361 85.8408C125.591 85.5329 125.837 85.2185 126.093 84.9062C129.74 80.4329 135.179 77.9778 140.79 77.9778C143.05 77.9782 145.292 78.3751 147.414 79.1504C151.305 80.5682 157.004 82.909 162.063 86.0097C171.921 92.0508 174.205 98.9654 177.393 110.66C177.723 111.87 177.975 112.965 178.153 114.008C178.271 114.686 178.361 115.352 178.421 115.989C178.842 120.453 177.825 124.021 175.397 126.593Z" fill="black"/>
<path d="M154.743 68.6833C150.988 66.4626 148.056 67.9657 148.056 67.9657L147.765 69.7198L153.014 72.1945C153.014 72.1945 158.498 70.904 154.743 68.6833Z" fill="#D3354F"/>
<path d="M159.675 71.3391C158.521 79.5413 162.878 99.2159 162.878 99.2159L167.116 97.6255C167.116 97.6255 171.68 93.6674 169.8 88.0972C167.919 82.5269 159.675 71.3391 159.675 71.3391Z" fill="#E54357"/>
<path d="M162.082 85.7187C163.647 82.7134 163.292 79.9687 161.652 77.2297C160.012 74.4908 159.547 71.5037 158.64 70.8246C157.732 70.1456 153.798 69.4803 153.798 69.4803L149.237 68.6418C148.185 68.6207 146.683 69.0858 145.766 69.3085C144.284 69.6674 141.963 70.4927 140.127 71.5496C138.082 72.7265 138.835 76.0703 139.023 80.9134C139.074 82.2017 139.113 83.4813 139.096 84.6764C139.082 85.4887 139.042 86.2624 138.958 86.9742C138.291 92.6777 139.777 102.377 141.276 104.69C141.521 105.056 141.863 105.348 142.262 105.534C142.41 105.607 142.563 105.669 142.719 105.722C146.544 107.005 155.345 103.833 158.95 102.623C165.985 100.261 160.564 96.8847 160.783 91.6325C160.959 87.3411 160.719 88.3324 162.082 85.7187Z" fill="white"/>
<path d="M144.036 68.4175C142.938 69.1898 143.517 69.8645 143.517 69.8645C143.517 69.8645 139.427 70.5923 138.241 72.6893C137.054 74.7862 139.26 80.6403 138.735 83.8363C138.211 87.0323 137.523 95.7367 138.735 97.9567C139.053 98.539 139.784 98.02 140.821 99.0273C140.967 99.17 141.12 99.3156 141.28 99.4641C143.284 101.308 146.216 103.378 149.46 104.405C150.155 94.6559 148.195 81.8049 148.056 67.9699C148.056 67.9655 145.135 67.646 144.036 68.4175Z" fill="#E54357"/>
<path d="M163.51 80.4745C162.759 77.3396 160.449 75.0243 160.229 73.53C160.01 72.0357 160.115 71.4454 159.194 71.0167C158.631 70.7558 158.04 70.5576 157.433 70.4257C157.433 70.4257 157.37 69.7394 157.074 69.3339C156.388 68.3936 154.745 68.6789 154.745 68.6789C156.306 81.5 157.519 93.5511 158.052 104.104C162.355 102.25 163.511 98.3542 163.511 98.3542C163.511 98.3542 161.029 90.8689 161.647 88.2355C162.266 85.6022 164.263 83.6093 163.51 80.4745Z" fill="#E54357"/>
<path d="M138.735 90.791C138.735 90.791 142.093 82.1623 143.612 78.1111C143.612 78.1111 144.059 74.3182 138.735 72.04C138.735 72.04 134.599 79.1293 132.128 87.5739C131.703 89.0296 131.493 90.2844 131.457 91.3696C131.342 94.749 132.897 96.4828 134.77 97.4785C135.789 98.0193 136.896 98.3432 137.884 98.595C141.28 99.4597 148.193 100.447 148.193 100.447L148.601 94.6326C148.601 94.6326 140.684 93.1718 138.735 90.791Z" fill="#E54357"/>
<path d="M143.694 49.5968C139.8 49.2226 136.812 50.3785 138.554 55.8061C140.295 61.2337 139.573 63.4965 137.061 63.926C134.549 64.3554 134.519 61.385 134.519 61.385C134.519 61.385 134.184 64.1458 137.015 64.9515C137.015 64.9515 134.117 65.3926 135.291 67.1402C136.466 68.8878 139.665 68.3659 140.823 66.7493C140.823 66.7493 141.005 67.9867 142.56 67.427C142.439 67.3889 142.327 67.326 142.231 67.2421C142.136 67.1583 142.059 67.0554 142.005 66.94C142.005 66.9383 142.005 66.9366 142.005 66.9349C141.935 66.7782 141.901 66.6079 141.904 66.4363C141.904 65.6102 146.365 66.6918 147.372 61.4462C148.378 56.2006 145.58 55.5506 145.58 55.5506L147.847 54.2237L148.099 54.0781C148.099 54.0781 147.588 49.9716 143.694 49.5968Z" fill="#67201B"/>
<path d="M147.725 52.7354C147.725 52.7354 144.142 53.2987 144.198 57.5093C144.254 61.72 144.442 64.7879 142.758 65.0317C141.273 65.25 141.85 66.614 142.006 66.9328C141.936 66.7761 141.902 66.6059 141.905 66.4343C141.905 65.6081 146.366 66.6897 147.373 61.4441C148.379 56.1985 145.581 55.5485 145.581 55.5485L147.848 54.2216C147.327 53.7842 147.725 52.7354 147.725 52.7354Z" fill="#511614"/>
<path d="M153.567 68.1118L153.452 65.9224L153.444 65.7717L148.953 66.0898L148.963 66.2397L148.975 66.445L149.134 68.9481C149.174 69.4831 149.406 69.9856 149.786 70.3639C150.167 70.7422 150.671 70.971 151.206 71.0086C151.26 71.0123 151.314 71.0145 151.366 71.0145C151.672 71.014 151.975 70.9506 152.256 70.8281C152.537 70.7057 152.79 70.5269 152.998 70.3028C153.207 70.0787 153.368 69.814 153.47 69.5252C153.572 69.2365 153.614 68.9298 153.593 68.6242L153.567 68.1118Z" fill="#FFD4D3"/>
<path d="M153.452 65.9211L148.963 66.2385L148.977 66.4437L149.019 67.026C150.384 68.3951 152.795 68.2102 153.569 68.1083L153.454 65.9189L153.452 65.9211Z" fill="#FFA2A1"/>
<path d="M156.169 55.1969C156.169 55.1969 154.509 52.5825 149.433 53.5956C144.356 54.6088 145.526 59.5276 145.526 59.5276C145.526 59.5276 145.453 67.6796 152.601 66.9554C155.127 66.6999 156.313 65.1576 156.792 63.2695C157.104 62.0402 157.115 60.6645 157 59.401C156.863 57.9755 156.585 56.5672 156.169 55.1969Z" fill="#FFD4D3"/>
<path d="M157 59.3995C157.115 60.6631 157.104 62.0387 156.792 63.268C157.811 63.2011 159.175 62.8401 159.187 61.3829C159.199 59.5851 157.684 59.3944 157 59.3995Z" fill="#FFD4D3"/>
<path d="M155.525 53.6021C154.645 53.5962 155.234 56.4938 156.544 57.8083C156.9 60.9024 156.507 65.0657 156.846 63.3189C158.42 55.2077 155.525 53.6021 155.525 53.6021Z" fill="#67201B"/>
<path d="M146.018 60.5044C145.114 59.9177 143.78 60.3137 143.246 61.2271C143.189 61.3236 143.144 61.4261 143.11 61.5328C143.02 61.8278 142.998 62.1395 143.047 62.4441C143.154 63.1341 143.608 63.7433 144.294 63.9369C145.043 64.148 145.845 63.8641 146.503 63.5119C147.027 62.4783 146.528 61.0459 146.527 61.0444C146.452 60.8275 146.201 60.6223 146.018 60.5044Z" fill="#FFD4D3"/>
<path d="M146.039 62.0946C146.031 62.0728 146.024 62.0502 146.015 62.0284L145.982 61.9658C145.958 61.925 145.937 61.8821 145.909 61.8428L145.82 61.7322C145.695 61.5955 145.541 61.4883 145.37 61.4185C145.207 61.3538 145.035 61.3184 144.86 61.3136C144.692 61.3059 144.524 61.3306 144.365 61.3864C144.522 61.4439 144.668 61.5 144.807 61.5611C144.94 61.6184 145.068 61.686 145.19 61.7635C145.294 61.833 145.389 61.9157 145.472 62.0095C145.524 62.0095 145.576 62.0095 145.629 62.0189C145.742 62.0295 145.853 62.0539 145.961 62.0917L145.67 62.3479C145.624 62.2302 145.561 62.1202 145.482 62.0218L145.47 62.0095C145.417 62.0095 145.365 62.0095 145.312 62.0095C145.209 62.0155 145.106 62.0281 145.004 62.0473C144.902 62.0669 144.802 62.0952 144.704 62.1318C144.803 62.1667 144.901 62.198 144.996 62.2264L145.279 62.3072C145.373 62.3334 145.464 62.3588 145.551 62.3872C145.632 62.412 145.711 62.4432 145.787 62.4804L146.244 62.7191L146.077 62.2242L146.039 62.0946Z" fill="#FFA2A1"/>
<path d="M145.675 62.3487L145.966 62.0925C145.858 62.0547 145.747 62.0302 145.634 62.0197C145.581 62.0139 145.529 62.011 145.477 62.0103L145.488 62.0226C145.567 62.1211 145.63 62.2311 145.675 62.3487Z" fill="#FFA2A1"/>
<path d="M157.435 61.6958L157.749 61.7468C157.728 61.645 157.724 61.5406 157.736 61.4374V61.4236C157.7 61.4469 157.663 61.4716 157.631 61.4964C157.557 61.5542 157.491 61.6213 157.435 61.6958Z" fill="#FFA2A1"/>
<path d="M157.85 61.356C157.812 61.3771 157.777 61.3997 157.738 61.4237V61.4375C157.726 61.5407 157.73 61.6451 157.751 61.7468L157.437 61.6959C157.494 61.622 157.561 61.5557 157.635 61.4986C157.669 61.4717 157.708 61.447 157.74 61.4259C157.757 61.324 157.786 61.2248 157.828 61.1303C157.879 61.0228 157.939 60.9193 158.006 60.821C158.079 60.7177 158.152 60.6136 158.237 60.5051C158.102 60.5357 157.974 60.5923 157.86 60.6718C157.741 60.7517 157.637 60.8517 157.553 60.9673C157.464 61.0914 157.405 61.2336 157.378 61.3836L157.364 61.5001C157.364 61.5392 157.365 61.5783 157.369 61.6173V61.6762L157.381 61.7323L157.409 61.8444L157.511 62.2629L157.723 61.899C157.76 61.8396 157.801 61.7831 157.847 61.7301C157.895 61.6719 157.947 61.6136 158.001 61.5547C158.107 61.4353 158.219 61.3152 158.325 61.1784C158.241 61.1958 158.159 61.2201 158.079 61.2512C158.001 61.281 157.924 61.316 157.85 61.356Z" fill="#FFA2A1"/>
<path d="M146.285 53.1531C144.869 53.9771 145.452 60.2337 145.475 60.6187C145.579 62.3103 146.62 64.6787 146.604 64.1437C146.561 62.7033 146.419 59.3515 146.377 58.227C154.068 57.2328 155.525 53.603 155.525 53.603C153.669 50.8837 147.58 52.3984 146.285 53.1531Z" fill="#67201B"/>
<path d="M146.285 53.153C143.851 54.9653 145.453 60.2328 145.475 60.6178L155.525 53.602C153.669 50.8835 147.485 52.2562 146.285 53.153Z" fill="#67201B"/>
<path d="M149.833 54.0738C149.949 53.9806 149.949 53.6051 149.898 53.4915C149.74 53.1371 149.388 53.1756 149.064 53.3081C148.894 53.3809 148.73 53.4696 148.577 53.5731C148.018 53.9508 147.528 54.4223 147.13 54.9669C146.81 55.3945 146.519 55.8442 146.262 56.3127C144.714 59.088 148.967 55.0557 148.967 55.0557C148.967 55.0557 148.448 56.3178 149.086 56.0463C149.724 55.7748 151.779 53.6444 151.968 53.1545C152.158 52.6647 150.051 53.8977 149.833 54.0738Z" fill="#935A52"/>
<path d="M152.707 54.3408C152.707 54.3408 153.313 53.3546 152.381 53.8975C152.381 53.8975 151.222 54.6676 150.998 55.1604C150.774 55.6531 152.564 54.5948 152.564 54.5948C152.564 54.5948 152.184 54.966 152.211 55.1604C152.239 55.3547 153.976 53.9791 153.895 53.6806C153.813 53.3822 152.707 54.3408 152.707 54.3408Z" fill="#935A52"/>
</g>
<path d="M122.302 49.5H78.041V52.6123H122.302V49.5Z" fill="#4288D7"/>
<path d="M122.302 57.4524H78.041V60.5647H122.302V57.4524Z" fill="#4288D7"/>
<path d="M122.302 65.4058H78.041V68.5181H122.302V65.4058Z" fill="#4288D7"/>
<path d="M122.302 73.3589H78.041V76.4712H122.302V73.3589Z" fill="#4288D7"/>
<path d="M122.302 86.9312H78.041V89.6977H122.302V86.9312Z" fill="#E3F0FE"/>
<path d="M168.869 86.9312H124.608V89.6977H168.869V86.9312Z" fill="#E3F0FE"/>
<path d="M122.302 91.9453H78.041V94.7119H122.302V91.9453Z" fill="#E3F0FE"/>
<path d="M168.869 91.9453H124.608V94.7119H168.869V91.9453Z" fill="#E3F0FE"/>
<path d="M122.302 96.9587H78.041V99.7253H122.302V96.9587Z" fill="#E3F0FE"/>
<path d="M168.869 96.9587H124.608V99.7253H168.869V96.9587Z" fill="#E3F0FE"/>
<path d="M122.302 101.973H78.041V104.739H122.302V101.973Z" fill="#E3F0FE"/>
<path d="M168.868 140.487H78.041V151.668H168.868V140.487Z" fill="#E3F0FE"/>
<path d="M168.869 101.973H124.608V104.739H168.869V101.973Z" fill="#E3F0FE"/>
<path d="M122.302 119.203H78.041V121.969H122.302V119.203Z" fill="#4288D7"/>
<path d="M168.869 119.203H124.608V121.969H168.869V119.203Z" fill="#4288D7"/>
<path d="M122.302 124.216H78.041V126.983H122.302V124.216Z" fill="#4288D7"/>
<path d="M168.869 124.216H124.608V126.983H168.869V124.216Z" fill="#4288D7"/>
<path d="M122.302 129.23H78.041V131.997H122.302V129.23Z" fill="#4288D7"/>
<path d="M168.869 129.23H124.608V131.997H168.869V129.23Z" fill="#4288D7"/>
<path d="M122.302 134.244H78.041V137.01H122.302V134.244Z" fill="#4288D7"/>
<path d="M168.869 134.244H124.608V137.01H168.869V134.244Z" fill="#4288D7"/>
<path d="M241.655 130.198C241.297 129.721 240.934 129.259 240.57 128.815C232.975 119.499 220.237 116.161 208.946 120.278C202.614 122.585 194.491 125.999 187.248 130.437C172.695 139.35 169.283 149.521 164.528 166.96C164.12 168.458 163.712 170.137 163.402 171.92C163.236 172.875 163.098 173.857 163.004 174.858C161.95 186.01 166.253 199.357 196.733 198.286C216.172 197.603 236.276 194.952 246.683 159.133C249.777 148.485 247.765 140.421 244.369 134.346C243.558 132.904 242.652 131.519 241.655 130.198Z" fill="#204184"/>
<path d="M241.655 130.198C241.896 130.755 242.13 131.338 242.352 131.945C244.39 137.53 245.791 146.414 240.905 157.018C230.969 178.585 219.446 191.809 192.745 191.107C177.659 190.711 170.3 184.62 166.784 179.58C164.948 176.95 163.909 174.287 163.402 171.92C163.235 172.875 163.098 173.857 163.004 174.858C163.689 176.778 164.627 178.599 165.794 180.271C169.47 185.538 177.124 191.901 192.714 192.313C193.4 192.331 194.077 192.34 194.746 192.34C200.702 192.34 205.954 191.621 210.758 190.156C215.781 188.622 220.163 186.309 224.16 183.084C230.838 177.697 236.342 169.812 242.003 157.525C244.24 152.672 245.398 147.752 245.449 142.905C245.478 140.016 245.114 137.137 244.367 134.346C243.557 132.904 242.651 131.519 241.655 130.198Z" fill="#92D4F5"/>
<path d="M198.113 104.823C192.553 108.111 200.67 110.021 200.67 110.021L208.442 106.359L208.013 103.762C208.013 103.762 203.672 101.536 198.113 104.823Z" fill="#444444"/>
<path d="M208.028 103.729C208.017 103.723 206.916 103.168 205.15 103.023C203.52 102.89 200.973 103.089 198.093 104.792C196.678 105.629 196.022 106.455 196.143 107.249C196.258 108.003 197.055 108.704 198.512 109.335C199.208 109.631 199.927 109.872 200.661 110.057H200.673L208.483 106.38L208.046 103.737L208.028 103.729ZM200.665 109.982C200.413 109.921 196.474 108.931 196.215 107.238C196.099 106.477 196.743 105.675 198.13 104.855C200.545 103.427 202.724 103.063 204.317 103.063C204.608 103.063 204.887 103.075 205.14 103.095C206.777 103.229 207.833 103.717 207.979 103.785L208.401 106.337L200.665 109.982Z" fill="black"/>
<path d="M175.821 133.561C173.037 141.808 179.794 147.668 179.794 147.668L186.069 150.022C186.069 150.022 192.518 120.899 190.81 108.753C190.81 108.756 178.605 125.314 175.821 133.561Z" fill="#EE9B2A"/>
<path d="M219.747 109.067C217.03 107.502 213.591 106.28 211.398 105.749C210.04 105.419 207.817 104.73 206.259 104.762L199.51 106.005C199.51 106.005 193.687 106.989 192.341 107.994C190.996 109 190.311 113.423 187.883 117.477C185.455 121.531 184.928 125.595 187.246 130.044C189.263 133.914 188.908 132.446 189.172 138.796C189.497 146.576 181.471 151.575 191.886 155.071C197.22 156.863 210.251 161.559 215.914 159.657C216.145 159.579 216.371 159.486 216.589 159.379C217.206 159.075 217.702 158.664 218.049 158.13C220.269 154.705 222.47 140.345 221.481 131.902C221.357 130.848 221.298 129.702 221.277 128.5C221.248 126.73 221.306 124.836 221.38 122.929C221.657 115.76 222.774 110.809 219.747 109.067Z" fill="white"/>
<g opacity="0.8">
<path d="M193.158 119.006L192.933 125.457C192.933 125.457 203.195 124.317 209.658 125.961L209.803 119.154C209.803 119.154 202.489 117.262 193.158 119.006Z" fill="#D3D3D3"/>
</g>
<g opacity="0.8">
<path d="M209.132 109.422C209.095 109.457 205.46 112.955 201.673 113.15C198.042 113.341 197.605 109.741 197.588 109.588C197.58 109.516 197.544 109.449 197.487 109.404C197.431 109.358 197.359 109.337 197.286 109.345C197.214 109.353 197.148 109.389 197.102 109.446C197.057 109.502 197.036 109.575 197.044 109.647C197.049 109.688 197.527 113.704 201.4 113.704C201.498 113.704 201.598 113.704 201.7 113.696C205.697 113.491 209.36 109.963 209.514 109.813C209.541 109.789 209.562 109.759 209.577 109.725C209.593 109.692 209.601 109.656 209.602 109.619C209.603 109.583 209.596 109.546 209.583 109.512C209.57 109.478 209.55 109.447 209.524 109.421C209.499 109.395 209.468 109.374 209.434 109.36C209.401 109.346 209.364 109.339 209.328 109.339C209.291 109.339 209.255 109.346 209.221 109.36C209.188 109.375 209.157 109.396 209.132 109.422Z" fill="#D3D3D3"/>
</g>
<g opacity="0.8">
<path d="M212.705 145.526C208.603 143.039 204.018 141.46 199.255 140.894C195.708 140.485 193.422 140.816 193.327 140.83C193.29 140.836 193.254 140.848 193.222 140.868C193.19 140.887 193.162 140.912 193.14 140.942C193.118 140.972 193.102 141.007 193.092 141.043C193.083 141.079 193.082 141.117 193.087 141.154C193.093 141.191 193.105 141.226 193.125 141.258C193.144 141.29 193.169 141.318 193.199 141.341C193.229 141.363 193.263 141.379 193.3 141.388C193.336 141.397 193.374 141.399 193.411 141.394C193.434 141.394 195.734 141.059 199.212 141.466C203.885 142.025 208.385 143.577 212.41 146.017C212.458 146.046 212.514 146.061 212.571 146.058C212.628 146.055 212.682 146.036 212.728 146.002C212.757 145.98 212.782 145.952 212.801 145.921C212.821 145.889 212.834 145.853 212.84 145.815C212.846 145.778 212.845 145.74 212.836 145.703C212.827 145.666 212.81 145.632 212.788 145.601C212.765 145.571 212.737 145.545 212.705 145.526Z" fill="#D3D3D3"/>
<path d="M212.722 145.494C208.616 143.005 204.025 141.424 199.257 140.858C195.701 140.447 193.414 140.78 193.318 140.794C193.234 140.807 193.159 140.852 193.108 140.92C193.058 140.988 193.036 141.074 193.048 141.158C193.054 141.2 193.068 141.24 193.09 141.276C193.112 141.312 193.141 141.344 193.175 141.369C193.209 141.394 193.247 141.412 193.288 141.422C193.329 141.433 193.372 141.435 193.414 141.429C193.436 141.429 195.731 141.094 199.204 141.497C203.873 142.055 208.368 143.605 212.388 146.043C212.443 146.076 212.506 146.092 212.57 146.089C212.634 146.086 212.696 146.064 212.747 146.026C212.78 146.001 212.808 145.97 212.83 145.935C212.873 145.862 212.887 145.775 212.866 145.692C212.846 145.61 212.794 145.539 212.722 145.494ZM212.769 145.898C212.752 145.927 212.731 145.951 212.705 145.971C212.665 146.001 212.617 146.018 212.568 146.02C212.518 146.023 212.469 146.01 212.427 145.984C208.398 143.541 203.893 141.988 199.215 141.429C198.092 141.297 196.964 141.23 195.834 141.228C194.317 141.228 193.419 141.358 193.404 141.36C193.34 141.367 193.276 141.348 193.226 141.309C193.175 141.27 193.142 141.212 193.132 141.149C193.123 141.085 193.138 141.021 193.175 140.969C193.212 140.916 193.268 140.88 193.331 140.868C193.427 140.854 195.704 140.522 199.25 140.932C204.008 141.498 208.589 143.075 212.686 145.559C212.741 145.593 212.781 145.648 212.797 145.712C212.812 145.775 212.802 145.842 212.769 145.898Z" fill="black"/>
</g>
<path d="M222.544 110.755C220.788 107.653 214.733 106.572 214.733 106.572C214.733 106.572 215.59 105.573 213.965 104.43C212.339 103.288 208.012 103.761 208.012 103.761C207.806 124.244 204.904 143.269 205.934 157.703C210.738 156.183 215.078 153.118 218.045 150.388C218.279 150.172 218.505 149.958 218.723 149.747C220.258 148.255 221.343 149.019 221.812 148.162C223.607 144.876 222.588 131.99 221.812 127.257C221.036 122.525 224.302 113.856 222.544 110.755Z" fill="#FCCE4D"/>
<path d="M210.633 110.161C210.598 110.164 210.563 110.174 210.532 110.19C210.5 110.206 210.472 110.228 210.45 110.255C210.427 110.283 210.41 110.314 210.399 110.348C210.388 110.382 210.385 110.417 210.388 110.452C210.41 110.72 212.566 137.383 210.388 151.526C210.383 151.561 210.384 151.596 210.392 151.63C210.401 151.665 210.416 151.697 210.437 151.725C210.457 151.754 210.484 151.778 210.514 151.796C210.544 151.814 210.577 151.826 210.612 151.832C210.626 151.833 210.639 151.833 210.653 151.832C210.717 151.832 210.779 151.809 210.827 151.767C210.876 151.725 210.907 151.668 210.917 151.604C213.101 137.397 210.942 110.674 210.917 110.408C210.912 110.338 210.879 110.272 210.826 110.226C210.773 110.18 210.703 110.157 210.633 110.161Z" fill="white"/>
<path d="M209.346 108.716C209.275 108.716 209.207 108.744 209.157 108.794C209.107 108.843 209.078 108.911 209.078 108.981C209.078 109.264 208.848 137.374 205.998 153.649C205.992 153.684 205.993 153.719 206.001 153.754C206.008 153.788 206.023 153.821 206.043 153.849C206.063 153.878 206.089 153.903 206.119 153.922C206.149 153.94 206.182 153.953 206.216 153.959C206.232 153.962 206.247 153.963 206.263 153.964C206.326 153.963 206.387 153.941 206.435 153.9C206.483 153.86 206.516 153.804 206.527 153.742C209.384 137.422 209.612 109.27 209.614 108.986C209.614 108.95 209.608 108.915 209.594 108.883C209.581 108.85 209.561 108.82 209.536 108.795C209.511 108.77 209.481 108.75 209.449 108.736C209.416 108.723 209.381 108.716 209.346 108.716Z" fill="#EE9B2A"/>
<path d="M214.404 106.432C214.391 106.445 213.056 107.728 210.935 108.293C210.872 108.31 210.818 108.349 210.782 108.403C210.746 108.457 210.731 108.522 210.74 108.586C210.748 108.65 210.779 108.709 210.828 108.752C210.877 108.795 210.939 108.819 211.004 108.819C211.028 108.819 211.053 108.816 211.077 108.81C213.339 108.208 214.725 106.871 214.782 106.815C214.833 106.766 214.862 106.698 214.863 106.627C214.864 106.556 214.836 106.487 214.787 106.437C214.737 106.386 214.669 106.357 214.598 106.356C214.527 106.355 214.459 106.382 214.408 106.432H214.404Z" fill="#EE9B2A"/>
<path d="M194.661 105.788C194.224 106.387 194.129 107.403 194.129 107.403C193.231 107.598 192.356 107.891 191.522 108.276C190.159 108.91 190.314 109.783 189.989 111.997C189.664 114.211 186.245 117.636 185.132 122.279C184.019 126.921 186.969 129.879 187.89 133.773C188.811 137.667 185.132 148.759 185.132 148.759C185.132 148.759 186.845 154.523 193.215 157.269C194.005 141.645 195.8 123.802 198.112 104.821C198.112 104.823 195.677 104.394 194.661 105.788Z" fill="#FCCE4D"/>
<path d="M195.198 110.166C195.164 110.159 195.128 110.158 195.094 110.165C195.059 110.172 195.026 110.185 194.997 110.204C194.968 110.224 194.942 110.248 194.922 110.278C194.903 110.307 194.889 110.339 194.882 110.374C194.842 110.564 190.951 129.599 190.334 150.903C190.333 150.938 190.339 150.973 190.351 151.006C190.364 151.039 190.383 151.069 190.407 151.095C190.431 151.12 190.46 151.141 190.492 151.155C190.524 151.17 190.559 151.178 190.594 151.179H190.602C190.672 151.179 190.738 151.151 190.788 151.103C190.838 151.054 190.867 150.988 190.869 150.919C191.485 129.666 195.367 110.669 195.407 110.482C195.414 110.448 195.414 110.412 195.407 110.378C195.401 110.343 195.387 110.31 195.368 110.281C195.349 110.251 195.324 110.226 195.295 110.206C195.266 110.187 195.233 110.173 195.198 110.166Z" fill="white"/>
<path d="M196.511 108.879C196.492 108.879 194.778 108.565 194.385 107.322C194.377 107.286 194.361 107.253 194.339 107.224C194.316 107.195 194.288 107.17 194.256 107.152C194.224 107.134 194.189 107.123 194.153 107.119C194.116 107.116 194.079 107.119 194.044 107.13C194.009 107.142 193.977 107.16 193.949 107.184C193.922 107.208 193.899 107.237 193.883 107.27C193.868 107.304 193.859 107.34 193.858 107.376C193.856 107.413 193.863 107.449 193.876 107.484C194.369 109.04 196.338 109.393 196.423 109.407C196.438 109.409 196.453 109.411 196.469 109.411C196.536 109.411 196.601 109.386 196.65 109.341C196.7 109.295 196.731 109.233 196.737 109.166C196.742 109.099 196.722 109.032 196.681 108.979C196.64 108.926 196.58 108.89 196.514 108.879H196.511Z" fill="#EE9B2A"/>
<path d="M196.149 109.68C196.114 109.676 196.078 109.679 196.044 109.688C196.01 109.698 195.979 109.714 195.951 109.736C195.923 109.757 195.9 109.784 195.883 109.815C195.866 109.846 195.855 109.88 195.851 109.914C195.821 110.166 192.843 135.21 190.959 150.879C190.951 150.949 190.97 151.02 191.014 151.076C191.058 151.132 191.122 151.168 191.193 151.176C191.203 151.177 191.214 151.177 191.225 151.176C191.291 151.176 191.354 151.152 191.403 151.109C191.451 151.065 191.483 151.006 191.49 150.941C193.375 135.271 196.353 110.227 196.382 109.976C196.39 109.906 196.37 109.835 196.326 109.78C196.282 109.725 196.219 109.689 196.149 109.68Z" fill="#EE9B2A"/>
<path d="M223.182 147.822C220.833 147.632 208.305 153.311 208.305 153.311C208.305 153.311 204.574 155.227 200.683 155.765C198.687 156.04 196.65 155.952 195.054 155.056C194.009 154.469 192.579 153.624 190.994 152.665C185.485 149.336 178.409 147.784 172.688 143.043L182.748 153.486C182.748 153.486 182.538 154.015 182.855 154.457C181.846 155.702 181.472 159.104 182.078 162.099C182.078 162.099 192.1 167.713 203.03 164.236C204.955 163.623 206.241 163.016 207.054 162.433C215.18 158.229 225.006 147.968 223.182 147.822Z" fill="#BC3987"/>
<path d="M187.69 171.182C186.412 172.231 186.518 176.865 186.518 176.865L194.145 174.486L191.904 169.21C190.915 170.256 187.69 171.182 187.69 171.182Z" fill="#FFA2A1"/>
<path d="M176.003 187.743C175.99 187.838 176.007 187.935 176.051 188.02C176.094 188.105 176.163 188.174 176.248 188.219C176.333 188.263 176.429 188.28 176.524 188.268C176.619 188.255 176.708 188.214 176.779 188.149L182.186 183.212L187.063 178.761L188.969 164.68L179.306 163.37L176.003 187.743Z" fill="#E54357"/>
<path d="M183.528 165.024C182.882 164.937 182.225 165.043 181.64 165.329C181.054 165.615 180.567 166.068 180.239 166.631C179.911 167.194 179.757 167.842 179.797 168.492C179.837 169.143 180.069 169.767 180.464 170.285C180.858 170.804 181.398 171.194 182.014 171.406C182.63 171.618 183.295 171.643 183.925 171.477C184.556 171.311 185.122 170.962 185.554 170.474C185.986 169.987 186.264 169.382 186.352 168.736C186.411 168.307 186.384 167.87 186.274 167.451C186.164 167.032 185.972 166.639 185.71 166.294C185.447 165.95 185.12 165.66 184.745 165.442C184.371 165.224 183.957 165.082 183.528 165.024Z" fill="white"/>
<path d="M177.231 178.684L176.004 187.744C175.991 187.839 176.008 187.935 176.052 188.02C176.096 188.104 176.165 188.174 176.249 188.218C176.334 188.262 176.43 188.279 176.525 188.267C176.619 188.255 176.708 188.214 176.779 188.149L182.187 183.212C181.637 181.983 180.28 179.818 177.231 178.684Z" fill="white"/>
<path d="M177.539 163.135L174.2 187.796L176.068 188.048L179.406 163.387L177.539 163.135Z" fill="#F99DAD"/>
<path d="M181.821 178.919L181.698 179.144C183.422 180.111 183.603 181.8 183.605 181.818L183.859 181.794C183.85 181.716 183.663 179.953 181.821 178.919Z" fill="black"/>
<path d="M185.068 180.34L185.196 180.328L185.068 180.34Z" fill="black"/>
<path d="M183.287 177.445L183.162 177.663C184.884 178.629 185.067 180.317 185.068 180.337L185.196 180.324L185.322 180.313C185.315 180.242 185.131 178.479 183.287 177.445Z" fill="black"/>
<path d="M235.705 146.85C231.113 143.543 223.186 147.822 223.186 147.822C212.183 152.765 208.847 157.35 203.961 161.093C199.075 164.836 189.676 168.407 189.676 168.407C188.42 174.147 191.961 175.122 191.961 175.122C191.961 175.122 197.254 175.897 213.555 170.215C229.855 164.533 244.101 152.898 235.705 146.85Z" fill="#C64F96"/>
<path d="M221.492 149.521C221.426 149.521 221.363 149.547 221.316 149.593C221.27 149.64 221.244 149.703 221.244 149.769C221.244 149.835 221.27 149.898 221.316 149.944C221.363 149.991 221.426 150.017 221.492 150.017C222.04 150.013 222.993 150.107 223.264 150.583C223.488 150.978 223.171 151.586 222.865 152.027C222.022 153.233 216.068 157.05 208.702 161.094C202.36 164.576 194.167 168.638 190.188 169.594L190.304 170.076C193.725 169.254 200.69 166.059 208.941 161.528C215.112 158.139 222.228 153.808 223.272 152.306C223.836 151.495 223.978 150.832 223.695 150.334C223.272 149.593 222.049 149.513 221.492 149.521Z" fill="#DC69A8"/>
<path d="M188.795 168.001C188.047 170.516 190.01 175.228 191.028 175.805C192.362 176.558 193.821 175.507 193.821 175.507C192.116 173.404 191.334 170.662 190.949 167.646C190.382 167.374 189.647 167.536 188.795 168.001Z" fill="#535353"/>
<path d="M190.985 167.644V167.625L190.967 167.616C190.417 167.352 189.701 167.47 188.783 167.973L188.77 167.98L188.766 167.994C188.436 169.104 188.601 170.8 189.221 172.645C189.743 174.204 190.498 175.547 191.016 175.84C191.341 176.023 191.708 176.118 192.081 176.115C193.035 176.115 193.837 175.549 193.848 175.541L193.879 175.518L193.854 175.488C192.34 173.624 191.431 171.131 190.985 167.644ZM191.046 175.777C190.543 175.492 189.801 174.165 189.284 172.622C188.672 170.798 188.505 169.128 188.826 168.029C189.708 167.55 190.393 167.433 190.915 167.673C191.361 171.148 192.268 173.642 193.767 175.504C193.548 175.645 192.236 176.446 191.046 175.773V175.777Z" fill="black"/>
<path d="M207.014 168.644L202.162 178.072L209.613 180.957C209.613 180.957 212.799 170.952 211.594 169.821C211.594 169.82 210.186 169.45 207.014 168.644Z" fill="#FFD4D3"/>
<path d="M208.212 183.006L211.077 189.308L214.256 196.295C214.297 196.387 214.366 196.463 214.452 196.514C214.539 196.565 214.639 196.589 214.739 196.581C214.839 196.573 214.934 196.534 215.012 196.47C215.089 196.406 215.145 196.319 215.171 196.223L222.036 171.364L212.178 168.641L208.212 183.006Z" fill="#E54357"/>
<path d="M217.282 171.216C216.623 171.035 215.925 171.052 215.276 171.267C214.627 171.482 214.057 171.884 213.636 172.423C213.216 172.962 212.965 173.614 212.915 174.295C212.866 174.977 213.019 175.658 213.356 176.253C213.693 176.847 214.199 177.328 214.81 177.635C215.421 177.942 216.109 178.061 216.787 177.977C217.465 177.893 218.103 177.61 218.621 177.163C219.138 176.717 219.511 176.127 219.693 175.468C219.814 175.03 219.848 174.573 219.792 174.123C219.736 173.672 219.592 173.237 219.368 172.843C219.144 172.448 218.845 172.101 218.487 171.822C218.129 171.543 217.719 171.337 217.282 171.216Z" fill="white"/>
<path d="M211.077 189.308L214.256 196.295C214.298 196.387 214.366 196.463 214.453 196.514C214.539 196.565 214.639 196.588 214.739 196.58C214.839 196.572 214.934 196.533 215.011 196.469C215.088 196.405 215.144 196.319 215.171 196.223L217.723 186.979C214.315 186.82 212.114 188.35 211.077 189.308Z" fill="white"/>
<path d="M221.938 171.344L214.99 196.499L216.895 197.025L223.843 171.87L221.938 171.344Z" fill="#F99DAD"/>
<path d="M210.052 187.248L210.287 187.376C210.296 187.36 211.167 185.806 213.227 185.585L213.198 185.319C210.994 185.556 210.09 187.18 210.052 187.248Z" fill="black"/>
<path d="M209.247 185.223L209.481 185.35C209.49 185.335 210.362 183.78 212.422 183.559L212.394 183.293C210.189 183.53 209.284 185.153 209.247 185.223Z" fill="black"/>
<path d="M193.84 159.325C189.315 155.149 186.416 150.278 175.914 144.346C175.914 144.346 166.564 139.924 163.534 142.23C150.42 152.214 165.108 159.274 179.224 169.209C192.153 178.307 202.265 178.801 202.265 178.801C202.265 178.801 208.118 173.749 207.393 167.919C207.392 167.919 198.367 163.499 193.84 159.325Z" fill="#DC69A8"/>
<path d="M175.842 148.56C175.578 148.093 175.317 147.458 175.577 147.085C175.891 146.636 176.849 146.63 177.397 146.684C177.461 146.687 177.523 146.665 177.571 146.624C177.619 146.582 177.649 146.523 177.655 146.46C177.661 146.397 177.643 146.333 177.604 146.283C177.564 146.233 177.507 146.2 177.444 146.191C176.89 146.135 175.666 146.099 175.174 146.801C174.846 147.27 174.927 147.944 175.414 148.805C176.316 150.396 183.006 155.361 188.84 159.301C196.64 164.57 203.284 168.391 206.613 169.523L206.773 169.053C202.899 167.737 195.112 162.939 189.117 158.89C182.151 154.188 176.57 149.843 175.842 148.56Z" fill="#C64F96"/>
<path d="M206.192 167.042C205.532 170.011 201.988 176.236 200.098 178.173C200.098 178.173 201.454 179.354 202.85 178.726C203.917 178.245 208.819 170.168 208.304 167.594C207.498 167.052 206.782 166.824 206.192 167.042Z" fill="#BC3987"/>
<path d="M231.593 132.791C227.934 120.289 221.812 109.791 221.812 109.791C213.928 113.164 214.591 118.779 214.591 118.779C216.84 124.777 221.812 137.552 221.812 137.552C218.926 141.076 207.205 143.239 207.205 143.239L207.808 151.848C207.808 151.848 218.045 150.386 223.071 149.105C224.534 148.732 226.178 148.253 227.681 147.453C230.456 145.978 232.757 143.412 232.587 138.408C232.533 136.804 232.222 134.946 231.593 132.791Z" fill="#FCCE4D"/>
<path d="M225.097 136.156C225.013 136.176 223.351 136.568 222.251 137.035C222.412 136.677 222.674 136.295 223.038 135.88C223.082 135.826 223.103 135.758 223.098 135.689C223.092 135.62 223.06 135.555 223.008 135.51C222.956 135.464 222.888 135.44 222.819 135.443C222.75 135.446 222.684 135.476 222.637 135.526C222.005 136.244 221.649 136.893 221.545 137.51C221.538 137.548 221.54 137.587 221.551 137.625C221.561 137.662 221.579 137.697 221.604 137.727C221.63 137.756 221.661 137.78 221.696 137.797C221.732 137.813 221.77 137.821 221.809 137.821C221.859 137.821 221.908 137.807 221.95 137.781C222.819 137.242 225.192 136.683 225.216 136.678C225.282 136.659 225.339 136.615 225.374 136.556C225.409 136.497 225.42 136.426 225.404 136.359C225.388 136.292 225.348 136.233 225.29 136.196C225.232 136.158 225.162 136.144 225.094 136.156H225.097Z" fill="#EE9B2A"/>
<path d="M227.681 147.455C230.456 145.98 232.757 143.414 232.587 138.411C230.392 139.56 226.559 142.346 227.681 147.455Z" fill="#444444"/>
<path d="M232.621 138.352L232.57 138.378C231.485 138.946 229.962 139.935 228.858 141.426C227.559 143.185 227.151 145.217 227.644 147.463L227.654 147.51L227.697 147.487C231.155 145.648 232.766 142.679 232.621 138.409V138.352ZM227.707 147.4C227.245 145.236 227.285 141.25 232.552 138.47C232.679 142.66 231.094 145.582 227.707 147.4Z" fill="black"/>
<path d="M214.85 119.663C214.842 119.628 214.827 119.595 214.806 119.566C214.785 119.536 214.759 119.512 214.728 119.493C214.697 119.474 214.663 119.462 214.628 119.457C214.592 119.452 214.556 119.454 214.521 119.463C214.487 119.472 214.454 119.488 214.426 119.509C214.397 119.531 214.373 119.559 214.356 119.59C214.338 119.621 214.327 119.656 214.323 119.691C214.319 119.727 214.322 119.763 214.332 119.797C215.627 124.804 217.898 130.429 221.477 137.484C220.793 138.048 217.892 140.28 213.578 141.392C213.542 141.4 213.509 141.414 213.479 141.435C213.45 141.456 213.425 141.482 213.406 141.513C213.387 141.544 213.375 141.578 213.369 141.614C213.364 141.65 213.366 141.686 213.375 141.721C213.384 141.756 213.4 141.789 213.422 141.817C213.444 141.846 213.471 141.87 213.503 141.887C213.534 141.905 213.569 141.916 213.605 141.92C213.641 141.924 213.677 141.921 213.712 141.91C218.783 140.6 221.864 137.866 221.991 137.75C222.035 137.71 222.064 137.658 222.075 137.6C222.086 137.542 222.077 137.482 222.051 137.43C218.434 130.322 216.146 124.676 214.85 119.663Z" fill="#EE9B2A"/>
<path d="M214.006 120.854C213.961 120.8 213.897 120.765 213.827 120.758C213.757 120.751 213.687 120.771 213.632 120.815C213.577 120.859 213.542 120.922 213.533 120.992C213.525 121.062 213.544 121.132 213.587 121.188L215.465 123.549C215.49 123.581 215.522 123.606 215.559 123.624C215.595 123.641 215.635 123.651 215.675 123.651C215.735 123.65 215.794 123.63 215.842 123.592C215.897 123.548 215.933 123.484 215.941 123.413C215.949 123.343 215.929 123.272 215.884 123.216L214.006 120.854Z" fill="#EE9B2A"/>
<path d="M215.872 151.284L180.05 151.671L181.107 157.22L215.038 157.982L217.317 153.648C217.446 153.401 217.51 153.124 217.501 152.845C217.492 152.566 217.411 152.294 217.265 152.056C217.119 151.818 216.914 151.621 216.67 151.486C216.426 151.351 216.151 151.281 215.872 151.284Z" fill="#1E1E1E"/>
<path d="M212.843 135.555C212.795 135.174 212.612 134.823 212.326 134.565C212.041 134.308 211.673 134.162 211.289 134.154H179.23C178.457 134.154 177.899 134.781 177.984 135.555L180.168 155.361C180.253 156.135 180.949 156.762 181.723 156.762H213.781C214.554 156.762 215.113 156.135 215.027 155.361L212.843 135.555Z" fill="#363636"/>
<path d="M211.869 136.097C211.864 136.062 211.853 136.028 211.835 135.997C211.818 135.966 211.794 135.939 211.766 135.917C211.738 135.895 211.706 135.879 211.672 135.87C211.638 135.86 211.602 135.858 211.567 135.862C211.532 135.867 211.498 135.878 211.467 135.895C211.436 135.913 211.409 135.936 211.387 135.964C211.365 135.992 211.349 136.024 211.34 136.059C211.33 136.093 211.328 136.129 211.332 136.164L213.993 157.382C214.001 157.447 214.033 157.507 214.082 157.551C214.132 157.594 214.195 157.618 214.261 157.618C214.272 157.619 214.283 157.619 214.295 157.618C214.366 157.609 214.431 157.572 214.475 157.516C214.519 157.459 214.538 157.387 214.53 157.316L211.869 136.097Z" fill="#505050"/>
<path d="M195.604 143.11C194.036 143.211 192.864 144.581 192.984 146.173C193.104 147.764 194.477 148.972 196.041 148.872C197.605 148.772 198.781 147.401 198.661 145.81C198.541 144.219 197.172 143.011 195.604 143.11Z" fill="#575757"/>
<path d="M214.93 154.884H180.05L180.403 157.467C180.441 157.75 180.581 158.009 180.796 158.196C181.011 158.383 181.286 158.487 181.571 158.486H214.07C214.239 158.486 214.405 158.45 214.558 158.381C214.712 158.311 214.848 158.209 214.959 158.083C215.07 157.956 215.152 157.807 215.2 157.646C215.249 157.484 215.262 157.315 215.239 157.148L214.93 154.884Z" fill="#363636"/>
<path d="M228.052 94.019C228.052 94.019 228.003 98.4167 224.29 97.7805C220.576 97.1444 219.501 93.7941 222.08 85.7593C224.66 77.7245 220.234 76.0119 214.469 76.5665C208.704 77.1212 207.945 83.19 207.945 83.19L208.319 83.4083L211.676 85.3735C211.676 85.3735 207.533 86.3409 209.023 94.1078C210.513 101.875 217.12 100.271 217.118 101.495C217.122 101.749 217.071 102.001 216.968 102.234C216.967 102.236 216.967 102.238 216.968 102.241C216.888 102.411 216.774 102.564 216.633 102.688C216.491 102.812 216.326 102.905 216.146 102.962C218.447 103.785 218.717 101.958 218.717 101.958C220.437 104.352 225.172 105.124 226.912 102.54C228.653 99.9561 224.358 99.2988 224.358 99.2988C228.55 98.1059 228.052 94.019 228.052 94.019Z" fill="#67201B"/>
<path d="M215.855 99.4167C213.362 99.0528 213.643 94.5117 213.723 88.2806C213.803 82.0494 208.501 81.2131 208.501 81.2131C208.501 81.2131 209.091 82.7664 208.319 83.4098L211.676 85.375C211.676 85.375 207.533 86.3423 209.023 94.1092C210.513 101.876 217.12 100.273 217.118 101.496C217.122 101.75 217.071 102.003 216.968 102.235C217.199 101.76 218.054 99.7355 215.855 99.4167Z" fill="#511614"/>
<path d="M200.023 100.734L199.853 103.977L199.814 104.732C199.782 105.185 199.844 105.639 199.996 106.066C200.147 106.494 200.385 106.886 200.694 107.218C201.003 107.549 201.377 107.814 201.793 107.995C202.209 108.177 202.657 108.27 203.111 108.271C203.189 108.271 203.268 108.271 203.348 108.263C204.14 108.207 204.886 107.868 205.45 107.308C206.013 106.748 206.356 106.004 206.416 105.212L206.65 101.506L206.669 101.203L206.683 100.979L200.034 100.509L200.023 100.734Z" fill="#FFD4D3"/>
<path d="M200.024 100.734L199.854 103.977C200.998 104.127 204.569 104.4 206.589 102.375L206.651 101.508L206.672 101.204L200.024 100.734Z" fill="#FFA2A1"/>
<path d="M205.974 82.4855C198.456 80.9883 196.002 84.8582 196.002 84.8582C195.386 86.8864 194.974 88.9708 194.772 91.0807C194.602 92.9505 194.619 94.9878 195.08 96.8081C195.788 99.6031 197.544 101.886 201.285 102.267C211.873 103.338 211.76 91.2699 211.76 91.2699C211.76 91.2699 213.489 83.9819 205.974 82.4855Z" fill="#FFD4D3"/>
<path d="M194.77 91.0793C193.758 91.0713 191.514 91.3537 191.533 94.0154C191.55 96.1721 193.571 96.7085 195.078 96.8067C194.617 94.9864 194.6 92.9491 194.77 91.0793Z" fill="#FFD4D3"/>
<path d="M196.956 82.4956C196.956 82.4956 192.668 84.8735 194.996 96.8824C195.497 99.4677 194.916 93.3042 195.442 88.7231C197.386 86.7798 198.258 82.4854 196.956 82.4956Z" fill="#67201B"/>
<path d="M200.306 95.6319C200.296 95.6115 200.288 95.5911 200.28 95.5707L200.2 95.562L200.306 95.6319Z" fill="#F48183"/>
<path d="M201.212 95.6799C201.044 95.6595 200.876 95.6355 200.707 95.6181L200.281 95.5707C200.289 95.5911 200.297 95.6115 200.306 95.6319L200.201 95.5591L200.281 95.5678C200.243 95.4757 200.23 95.3754 200.243 95.2767C200.266 95.1573 200.32 95.0464 200.401 94.9557C200.489 94.8554 200.592 94.7689 200.706 94.6988C200.822 94.6249 200.943 94.5611 201.07 94.5081L201.162 94.4717L201.168 94.3785C201.184 94.1114 201.202 93.8443 201.213 93.5779L201.231 93.1768L201.243 92.7758C201.248 92.6419 201.25 92.5079 201.252 92.374C201.252 92.2401 201.258 92.1062 201.256 91.9722C201.256 91.7037 201.256 91.4358 201.244 91.1665C201.195 91.4314 201.156 91.6971 201.119 91.962C201.098 92.0952 201.084 92.2277 201.066 92.3609C201.049 92.4941 201.033 92.6266 201.019 92.7598L200.975 93.1586L200.936 93.5582C200.912 93.7933 200.894 94.0291 200.876 94.2657C200.906 94.2526 200.935 94.2402 200.966 94.2278L200.868 94.3581C200.868 94.3268 200.873 94.2963 200.876 94.2657C200.758 94.3153 200.646 94.3757 200.54 94.4462C200.404 94.5348 200.281 94.6432 200.176 94.7679C200.057 94.8997 199.984 95.0661 199.966 95.2428C199.948 95.4195 199.988 95.5972 200.079 95.7498L200.115 95.8175H200.188L200.697 95.8335C200.867 95.84 201.037 95.8393 201.207 95.843C201.376 95.8466 201.547 95.843 201.716 95.843C201.886 95.843 202.056 95.8379 202.226 95.8306C202.058 95.7986 201.89 95.7731 201.722 95.7461C201.554 95.7192 201.381 95.7003 201.212 95.6799Z" fill="#F48183"/>
<path d="M200.967 94.2285C200.935 94.2409 200.906 94.2533 200.876 94.2664C200.876 94.2969 200.871 94.3275 200.869 94.3588L200.967 94.2285Z" fill="#F48183"/>
<path d="M196.765 89.7276L200.196 89.9707C200.196 89.9707 198.487 88.09 196.765 89.7276Z" fill="black"/>
<path d="M204.452 90.2735L207.884 90.5166C207.884 90.5166 206.179 88.6359 204.452 90.2735Z" fill="black"/>
<path d="M197.679 96.4819C198.266 95.9731 198.328 95.0854 197.819 94.4992C197.311 93.913 196.423 93.8503 195.837 94.3592C195.251 94.868 195.188 95.7557 195.697 96.3419C196.206 96.9281 197.093 96.9908 197.679 96.4819Z" fill="#FFA2A1"/>
<path d="M207.374 94.2257C207.096 94.2061 206.82 94.2691 206.578 94.4069C206.337 94.5446 206.141 94.7509 206.017 94.9996C205.893 95.2483 205.845 95.5282 205.88 95.804C205.915 96.0798 206.031 96.3391 206.213 96.549C206.395 96.7589 206.636 96.9101 206.904 96.9834C207.172 97.0567 207.456 97.0488 207.72 96.9608C207.983 96.8727 208.215 96.7085 208.385 96.4888C208.556 96.2691 208.657 96.0038 208.677 95.7265C208.703 95.3548 208.58 94.9879 208.336 94.7065C208.091 94.4251 207.745 94.2522 207.374 94.2257Z" fill="#FFA2A1"/>
<path d="M206.237 91.5837C205.873 91.5575 205.546 91.9767 205.509 92.5197C205.472 93.0627 205.736 93.5234 206.1 93.5489C206.464 93.5744 206.79 93.1558 206.827 92.6129C206.865 92.0699 206.602 91.6077 206.237 91.5837Z" fill="black"/>
<path d="M198.246 91.2524C197.882 91.2262 197.555 91.6454 197.518 92.1884C197.481 92.7314 197.744 93.1921 198.108 93.2176C198.473 93.2431 198.799 92.8245 198.836 92.2816C198.873 91.7386 198.61 91.2779 198.246 91.2524Z" fill="black"/>
<path d="M215.135 93.7847C214.343 92.4331 212.369 91.8457 211.03 92.714C210.76 92.8894 210.387 93.193 210.275 93.5147C210.275 93.5147 209.535 95.6371 210.312 97.167C211.285 97.6933 212.473 98.1089 213.581 97.7959C214.6 97.5098 215.27 96.608 215.428 95.5869C215.5 95.1358 215.468 94.6743 215.335 94.2374C215.285 94.0795 215.218 93.9277 215.135 93.7847Z" fill="#FFD4D3"/>
<path d="M211.15 95.1595L211.442 95.4164C211.486 95.2862 211.547 95.1621 211.622 95.0466C211.461 95.0664 211.303 95.1042 211.15 95.1595Z" fill="#FFA2A1"/>
<path d="M212.208 94.4951C212.397 94.3838 212.597 94.291 212.804 94.2178C213.023 94.1405 213.246 94.0746 213.472 94.0205C213.236 93.9642 212.993 93.947 212.751 93.9696C212.503 93.9903 212.26 94.051 212.031 94.1494C211.791 94.2523 211.576 94.406 211.401 94.5999C211.225 94.7997 211.098 95.038 211.031 95.2957L210.906 95.7528L211.32 95.5527C211.441 95.4978 211.566 95.4532 211.694 95.4195C211.827 95.3809 211.966 95.3467 212.106 95.3183C212.247 95.2899 212.389 95.2572 212.533 95.2266C212.677 95.196 212.824 95.1647 212.97 95.1298C212.824 95.0925 212.676 95.0653 212.527 95.0483C212.378 95.031 212.228 95.0218 212.077 95.0206C211.926 95.0195 211.774 95.0285 211.623 95.0475C211.548 95.163 211.488 95.2872 211.443 95.4173L211.152 95.1604C211.303 95.1054 211.46 95.0675 211.62 95.0475C211.654 94.9936 211.692 94.9418 211.733 94.8925C211.869 94.7354 212.029 94.6012 212.208 94.4951Z" fill="#FFA2A1"/>
<path d="M194.058 94.5256C193.977 94.4205 193.884 94.325 193.782 94.241C193.783 94.3544 193.771 94.4675 193.745 94.578L194.058 94.5256Z" fill="#FFA2A1"/>
<path d="M193.889 93.4359C193.773 93.2667 193.63 93.1174 193.466 92.9941C193.308 92.8719 193.131 92.7767 192.942 92.7124C193.076 92.8492 193.202 92.9931 193.32 93.1433C193.431 93.2856 193.529 93.4382 193.611 93.5989C193.688 93.7507 193.741 93.9139 193.766 94.0822C193.773 94.1345 193.777 94.1873 193.777 94.2402C193.88 94.3242 193.973 94.4197 194.054 94.5248L193.739 94.5764C193.765 94.466 193.777 94.3528 193.776 94.2394C193.679 94.1596 193.578 94.0866 193.471 94.0211C193.366 93.9555 193.258 93.8957 193.146 93.842C193.035 93.7884 192.92 93.7424 192.802 93.7045C192.975 93.8821 193.151 94.0466 193.319 94.214C193.403 94.2977 193.486 94.3806 193.562 94.4665C193.636 94.5463 193.703 94.632 193.763 94.7227L193.963 95.0452L194.078 94.6718C194.144 94.4633 194.16 94.2421 194.125 94.0262C194.09 93.8148 194.009 93.6135 193.889 93.4359Z" fill="#FFA2A1"/>
<path d="M210.635 81.8304C208.719 80.7146 199.703 78.472 196.956 82.4963C196.956 82.4963 199.111 87.8701 210.499 89.3425C210.437 91.0071 210.226 95.966 210.162 98.103C210.138 98.8949 211.68 95.3881 211.836 92.8828C211.868 92.3114 212.731 83.0495 210.635 81.8304Z" fill="#67201B"/>
<path d="M200.104 98.1911C200.45 98.6642 201.04 99.1177 202.026 99.1177C203.161 99.1177 203.726 98.5194 204.005 97.9801C204.142 97.717 204.233 97.4321 204.273 97.1379H199.635C199.715 97.5184 199.875 97.8774 200.104 98.1911Z" fill="white"/>
<path d="M210.635 81.8303C208.858 80.5041 199.703 78.472 196.956 82.4963L211.833 92.8827C211.868 92.3114 214.234 84.5146 210.635 81.8303Z" fill="#67201B"/>
<path d="M209.383 84.5112C208.778 83.7105 208.083 82.9965 207.242 82.447C207.014 82.2942 206.772 82.1629 206.52 82.0547C206.041 81.8589 205.519 81.8014 205.286 82.3269C205.209 82.5009 205.213 83.0548 205.381 83.1945C205.06 82.9332 201.945 81.1041 202.22 81.8276C202.496 82.5511 205.542 85.7078 206.487 86.1096C207.432 86.5113 206.663 84.6422 206.663 84.6422C206.663 84.6422 212.96 90.6106 210.666 86.504C210.286 85.8106 209.857 85.1446 209.383 84.5112Z" fill="#935A52"/>
<path d="M201.609 82.933C200.226 82.1324 201.127 83.5881 201.127 83.5881C201.127 83.5881 199.491 82.1673 199.371 82.6098C199.251 83.0524 201.823 85.0889 201.863 84.8007C201.903 84.5125 201.341 83.9629 201.341 83.9629C201.341 83.9629 203.995 85.5307 203.66 84.8007C203.325 84.0707 201.609 82.933 201.609 82.933Z" fill="#935A52"/>
<path d="M244.963 33.6829L267.891 26.8047L237.691 26.9816L244.963 33.6829Z" fill="#91EDDB"/>
<path d="M242.209 44.0206L267.891 26.8047L244.963 33.6829L242.209 44.0206Z" fill="#39A08F"/>
<path d="M242.209 44.0206L267.891 26.8047L247.552 37.5383L242.209 44.0206Z" fill="#17574D"/>
<path d="M252.433 46.857L267.891 26.8047L247.552 37.5383L252.433 46.857Z" fill="#91EDDB"/>
<path d="M217.872 62.9791C217.814 62.935 217.741 62.9158 217.668 62.9256C217.596 62.9354 217.53 62.9735 217.486 63.0315C217.158 63.4624 216.792 63.8999 216.399 64.33C216.324 64.4115 216.247 64.4943 216.168 64.5782C216.118 64.6313 216.091 64.7021 216.093 64.7751C216.095 64.848 216.126 64.9172 216.179 64.9673C216.232 65.0173 216.303 65.0443 216.376 65.0422C216.449 65.0401 216.518 65.0091 216.568 64.956C216.649 64.8701 216.727 64.7857 216.804 64.7027C217.21 64.2587 217.587 63.8089 217.925 63.3656C217.969 63.3073 217.988 63.234 217.978 63.1616C217.969 63.0891 217.93 63.0236 217.872 62.9791Z" fill="#32539B"/>
<path d="M203.607 70.6781C202.946 70.7596 202.261 70.8186 201.569 70.8535C201.533 70.8544 201.497 70.8625 201.464 70.8771C201.431 70.8918 201.401 70.9128 201.377 70.939C201.352 70.9652 201.332 70.996 201.319 71.0298C201.306 71.0635 201.3 71.0994 201.301 71.1356C201.302 71.1717 201.31 71.2073 201.324 71.2403C201.339 71.2734 201.36 71.3032 201.386 71.3281C201.439 71.3784 201.51 71.4056 201.583 71.4038H201.597C202.301 71.3681 202.999 71.3084 203.673 71.2255C203.746 71.2165 203.812 71.1791 203.857 71.1215C203.902 71.0639 203.922 70.9908 203.913 70.9183C203.904 70.8458 203.866 70.7799 203.809 70.735C203.751 70.6901 203.678 70.6699 203.606 70.6788L203.607 70.6781Z" fill="#32539B"/>
<path d="M211.355 68.2988C210.758 68.6218 210.144 68.9133 209.517 69.1723C209.458 69.1967 209.409 69.2407 209.379 69.2969C209.349 69.3531 209.34 69.418 209.352 69.4805C209.364 69.543 209.398 69.5993 209.447 69.6398C209.496 69.6803 209.558 69.7026 209.622 69.7029C209.658 69.703 209.693 69.6958 209.726 69.6818C210.372 69.4165 211.004 69.1174 211.619 68.7858C211.651 68.7686 211.679 68.7453 211.701 68.7172C211.724 68.6891 211.741 68.6569 211.751 68.6222C211.762 68.5876 211.765 68.5513 211.761 68.5153C211.758 68.4794 211.747 68.4445 211.73 68.4127C211.713 68.381 211.689 68.3529 211.661 68.3301C211.633 68.3073 211.601 68.2903 211.566 68.28C211.532 68.2697 211.495 68.2663 211.459 68.27C211.423 68.2738 211.389 68.2845 211.357 68.3017L211.355 68.2988Z" fill="#32539B"/>
<path d="M214.698 65.9895C214.185 66.4336 213.648 66.8496 213.09 67.2355C213.06 67.2561 213.035 67.2823 213.015 67.3127C212.995 67.3431 212.982 67.377 212.975 67.4126C212.969 67.4482 212.969 67.4847 212.977 67.5201C212.984 67.5555 212.999 67.589 213.019 67.6188C213.04 67.6485 213.066 67.674 213.097 67.6936C213.127 67.7133 213.161 67.7267 213.197 67.7332C213.232 67.7398 213.269 67.7392 213.304 67.7316C213.339 67.724 213.373 67.7095 213.403 67.689C213.977 67.2913 214.53 66.8629 215.058 66.4058C215.085 66.3819 215.108 66.3528 215.124 66.3203C215.14 66.2878 215.149 66.2524 215.152 66.2162C215.154 66.1799 215.149 66.1436 215.138 66.1092C215.126 66.0748 215.108 66.043 215.084 66.0157C215.06 65.9883 215.031 65.966 214.999 65.9499C214.966 65.9337 214.931 65.9242 214.894 65.9218C214.858 65.9193 214.822 65.9241 214.787 65.9357C214.753 65.9473 214.721 65.9656 214.694 65.9895H214.698Z" fill="#32539B"/>
<path d="M207.598 69.8506C206.959 70.0427 206.294 70.2101 205.62 70.3491C205.554 70.3631 205.495 70.4011 205.454 70.456C205.414 70.5108 205.396 70.5786 205.403 70.6463C205.41 70.7139 205.441 70.7766 205.492 70.8223C205.542 70.8679 205.608 70.8933 205.676 70.8936C205.694 70.8937 205.713 70.8919 205.732 70.8885C206.421 70.7465 207.102 70.5748 207.756 70.379C207.791 70.3686 207.823 70.3514 207.851 70.3286C207.879 70.3057 207.902 70.2775 207.92 70.2457C207.937 70.2139 207.947 70.179 207.951 70.143C207.955 70.1071 207.951 70.0708 207.941 70.0362C207.93 70.0016 207.913 69.9694 207.89 69.9414C207.867 69.9134 207.839 69.8902 207.807 69.8731C207.775 69.856 207.741 69.8453 207.705 69.8417C207.669 69.8381 207.632 69.8416 207.598 69.852V69.8506Z" fill="#32539B"/>
<path d="M187.39 68.9669C186.745 68.7864 186.08 68.5906 185.418 68.3847C185.383 68.372 185.345 68.3665 185.308 68.3686C185.271 68.3707 185.234 68.3803 185.201 68.3969C185.168 68.4135 185.138 68.4367 185.114 68.4651C185.09 68.4935 185.071 68.5264 185.06 68.5621C185.049 68.5977 185.045 68.6351 185.049 68.6722C185.053 68.7093 185.064 68.7453 185.083 68.7779C185.101 68.8105 185.125 68.8391 185.155 68.8619C185.184 68.8848 185.218 68.9015 185.254 68.9109C185.922 69.1183 186.591 69.3163 187.242 69.4975C187.265 69.5046 187.29 69.5083 187.314 69.5085C187.381 69.5075 187.444 69.4829 187.494 69.439C187.543 69.3951 187.575 69.335 187.584 69.2694C187.593 69.2039 187.578 69.1374 187.542 69.082C187.506 69.0266 187.451 68.9861 187.387 68.9677L187.39 68.9669Z" fill="#32539B"/>
<path d="M191.383 69.9416C190.728 69.8062 190.056 69.6541 189.379 69.4881C189.308 69.4708 189.233 69.4823 189.171 69.5202C189.108 69.558 189.063 69.6192 189.046 69.6901C189.029 69.7611 189.04 69.836 189.078 69.8984C189.116 69.9609 189.177 70.0057 189.248 70.0231C189.931 70.1905 190.612 70.3448 191.271 70.4809C191.29 70.4847 191.309 70.4866 191.328 70.4867C191.397 70.4874 191.463 70.4624 191.514 70.4167C191.565 70.3709 191.598 70.3077 191.605 70.2394C191.611 70.1711 191.593 70.1027 191.552 70.0476C191.511 69.9925 191.451 69.9547 191.383 69.9416Z" fill="#32539B"/>
<path d="M199.523 70.8907C198.858 70.882 198.169 70.8536 197.476 70.8049C197.44 70.8024 197.404 70.807 197.369 70.8185C197.335 70.83 197.303 70.8482 197.276 70.8719C197.221 70.9199 197.187 70.9878 197.182 71.0607C197.177 71.1336 197.201 71.2054 197.249 71.2605C197.297 71.3156 197.365 71.3494 197.438 71.3544C198.141 71.4031 198.841 71.433 199.516 71.4417H199.52C199.59 71.4381 199.657 71.4075 199.706 71.3562C199.754 71.3049 199.781 71.2369 199.781 71.1662C199.781 71.0955 199.754 71.0275 199.706 70.9762C199.657 70.925 199.59 70.8944 199.52 70.8907H199.523Z" fill="#32539B"/>
<path d="M195.434 70.6105C194.771 70.5312 194.088 70.4329 193.402 70.3194C193.367 70.3135 193.33 70.3146 193.295 70.3228C193.26 70.331 193.227 70.346 193.197 70.367C193.168 70.388 193.143 70.4146 193.124 70.4453C193.105 70.476 193.092 70.5101 193.086 70.5458C193.08 70.5814 193.081 70.6179 193.089 70.6531C193.097 70.6883 193.112 70.7216 193.133 70.751C193.154 70.7804 193.181 70.8053 193.212 70.8244C193.242 70.8436 193.276 70.8565 193.312 70.8624C194.006 70.9774 194.695 71.0764 195.368 71.1572H195.401C195.472 71.1584 195.541 71.1322 195.593 71.084C195.645 71.0358 195.676 70.9693 195.681 70.8985C195.685 70.8276 195.662 70.7579 195.616 70.7038C195.57 70.6497 195.504 70.6155 195.434 70.6084V70.6105Z" fill="#32539B"/>
<path d="M232.328 43.8553C231.687 44.1632 231.066 44.4929 230.484 44.8343C230.425 44.8731 230.383 44.9332 230.367 45.0021C230.351 45.071 230.361 45.1434 230.397 45.2045C230.433 45.2655 230.491 45.3104 230.559 45.33C230.627 45.3496 230.7 45.3423 230.763 45.3096C231.332 44.9755 231.939 44.6545 232.567 44.3517C232.6 44.3361 232.629 44.3141 232.653 44.2872C232.677 44.2602 232.696 44.2288 232.707 44.1946C232.719 44.1605 232.725 44.1243 232.723 44.0882C232.721 44.0521 232.711 44.0168 232.696 43.9842C232.68 43.9516 232.658 43.9224 232.631 43.8983C232.604 43.8742 232.573 43.8556 232.539 43.8436C232.505 43.8317 232.468 43.8265 232.432 43.8286C232.396 43.8306 232.361 43.8397 232.328 43.8553Z" fill="#32539B"/>
<path d="M236.199 42.3174C235.528 42.5357 234.87 42.7723 234.239 43.0219C234.18 43.0453 234.13 43.0889 234.099 43.1451C234.068 43.2013 234.057 43.2665 234.069 43.3296C234.081 43.3927 234.115 43.4495 234.165 43.4904C234.214 43.5312 234.276 43.5535 234.34 43.5533C234.375 43.5534 234.41 43.5468 234.442 43.5336C235.061 43.2891 235.71 43.0554 236.369 42.8414C236.405 42.8316 236.439 42.8146 236.468 42.7914C236.497 42.7682 236.522 42.7393 236.539 42.7064C236.557 42.6736 236.568 42.6374 236.572 42.6002C236.575 42.563 236.571 42.5255 236.559 42.4899C236.548 42.4544 236.529 42.4215 236.504 42.3934C236.48 42.3653 236.45 42.3425 236.416 42.3263C236.382 42.3102 236.346 42.3011 236.308 42.2996C236.271 42.298 236.234 42.3041 236.199 42.3174Z" fill="#32539B"/>
<path d="M238.975 41.5336C238.727 41.5933 238.465 41.6588 238.196 41.7309C238.131 41.7477 238.074 41.7878 238.036 41.8436C237.999 41.8995 237.983 41.9672 237.992 42.0339C238.001 42.1007 238.034 42.1618 238.085 42.2057C238.136 42.2497 238.201 42.2734 238.269 42.2724C238.293 42.2727 238.318 42.2695 238.341 42.2629C238.608 42.1901 238.865 42.1283 239.109 42.0686C239.144 42.0601 239.177 42.0447 239.207 42.0234C239.236 42.0021 239.261 41.9753 239.279 41.9444C239.298 41.9136 239.311 41.8793 239.316 41.8436C239.322 41.8079 239.32 41.7714 239.312 41.7363C239.303 41.7012 239.288 41.6681 239.267 41.6389C239.245 41.6097 239.219 41.585 239.188 41.5662C239.157 41.5473 239.123 41.5348 239.087 41.5292C239.051 41.5236 239.015 41.5251 238.98 41.5336H238.975Z" fill="#32539B"/>
<path d="M228.732 45.9763C228.165 46.3863 227.623 46.8283 227.107 47.3002C227.066 47.3377 227.037 47.3867 227.025 47.4408C227.012 47.4948 227.016 47.5515 227.036 47.6032C227.057 47.6549 227.092 47.6994 227.138 47.7306C227.184 47.7619 227.238 47.7786 227.293 47.7784C227.362 47.7785 227.429 47.7525 227.479 47.7056C227.98 47.2482 228.506 46.8196 229.055 46.4217C229.114 46.3789 229.154 46.3143 229.165 46.2422C229.176 46.1702 229.159 46.0965 229.116 46.0374C229.095 46.0082 229.068 45.9834 229.037 45.9645C229.006 45.9456 228.972 45.9329 228.936 45.9272C228.864 45.9158 228.791 45.9334 228.732 45.9763Z" fill="#32539B"/>
<path d="M219.865 59.3841C219.832 59.3695 219.796 59.3617 219.76 59.3611C219.723 59.3605 219.687 59.3672 219.653 59.3808C219.619 59.3943 219.588 59.4145 219.562 59.44C219.536 59.4656 219.516 59.4961 219.501 59.5297C219.237 60.1532 218.937 60.7608 218.602 61.3493C218.566 61.4127 218.556 61.4878 218.575 61.5582C218.594 61.6287 218.64 61.6886 218.704 61.7249C218.767 61.7612 218.842 61.7709 218.913 61.7517C218.983 61.7326 219.043 61.6863 219.079 61.623C219.425 61.0166 219.735 60.3906 220.007 59.7481C220.022 59.7149 220.03 59.6791 220.031 59.6428C220.031 59.6065 220.025 59.5705 220.012 59.5367C219.999 59.5028 219.979 59.472 219.954 59.4458C219.929 59.4196 219.899 59.3987 219.865 59.3841Z" fill="#32539B"/>
<path d="M221.408 55.5601C221.374 55.5455 221.339 55.5375 221.302 55.5367C221.266 55.5359 221.23 55.5422 221.196 55.5553C221.163 55.5684 221.132 55.5881 221.105 55.6131C221.079 55.6382 221.058 55.6682 221.044 55.7013C220.753 56.3666 220.507 56.9896 220.263 57.6229C220.25 57.6566 220.243 57.6926 220.244 57.7288C220.245 57.7649 220.253 57.8006 220.268 57.8336C220.282 57.8667 220.303 57.8966 220.329 57.9216C220.356 57.9465 220.387 57.9661 220.42 57.9792C220.454 57.9922 220.49 57.9985 220.526 57.9976C220.562 57.9968 220.598 57.9888 220.631 57.9742C220.664 57.9595 220.694 57.9385 220.719 57.9123C220.744 57.8862 220.763 57.8553 220.777 57.8216C221.018 57.1949 221.259 56.5777 221.547 55.9233C221.562 55.8903 221.57 55.8547 221.571 55.8186C221.572 55.7825 221.566 55.7465 221.553 55.7128C221.54 55.6791 221.52 55.6482 221.495 55.622C221.47 55.5958 221.441 55.5748 221.408 55.5601Z" fill="#32539B"/>
<path d="M225.649 48.7975C225.168 49.3302 224.714 49.8623 224.3 50.3805C224.259 50.438 224.241 50.5092 224.251 50.5795C224.26 50.6497 224.297 50.7135 224.352 50.7577C224.407 50.8019 224.478 50.823 224.548 50.8168C224.619 50.8105 224.684 50.7773 224.731 50.7241C225.137 50.2146 225.583 49.6905 226.057 49.1665C226.106 49.1123 226.132 49.041 226.128 48.9681C226.124 48.8952 226.092 48.8267 226.038 48.7778C225.983 48.7289 225.912 48.7035 225.839 48.7071C225.766 48.7108 225.698 48.7433 225.649 48.7975Z" fill="#32539B"/>
<path d="M223.446 51.9819C223.385 51.9411 223.311 51.9258 223.239 51.9394C223.167 51.9531 223.104 51.9945 223.063 52.0547C222.661 52.6465 222.304 53.228 221.971 53.8314C221.936 53.8953 221.927 53.9706 221.947 54.0408C221.967 54.1109 222.015 54.1702 222.079 54.2055C222.143 54.2408 222.218 54.2493 222.288 54.2291C222.358 54.2089 222.417 54.1617 222.453 54.0978C222.778 53.509 223.127 52.942 223.52 52.3648C223.561 52.3042 223.576 52.2298 223.562 52.158C223.548 52.0862 223.506 52.0229 223.446 51.9819Z" fill="#32539B"/>
<path d="M115.763 159.565H58.4844V193.561H115.763V159.565Z" fill="#F8AA52"/>
<path d="M87.1239 176.562L115.764 159.565H58.4844L87.1239 176.562Z" fill="#FFD959"/>
<path d="M68.1198 168.126C72.1652 164.08 72.1652 157.522 68.1198 153.476C64.0745 149.431 57.5156 149.431 53.4703 153.476C49.4249 157.522 49.4249 164.08 53.4703 168.126C57.5156 172.171 64.0745 172.171 68.1198 168.126Z" fill="white"/>
<path d="M60.7945 149.645C54.6427 149.645 49.6387 154.65 49.6387 160.802C49.6387 166.953 54.6427 171.957 60.7945 171.957C66.9463 171.957 71.9503 166.953 71.9503 160.802C71.9503 154.652 66.9456 149.645 60.7945 149.645ZM60.7945 170.363C55.5219 170.363 51.2327 166.073 51.2327 160.802C51.2356 158.266 52.2439 155.836 54.0364 154.044C55.829 152.251 58.2594 151.243 60.7945 151.24C66.0663 151.24 70.3563 155.529 70.3563 160.802C70.3563 166.074 66.0663 170.363 60.7945 170.363Z" fill="#17574D"/>
<path d="M60.0602 164.408L54.5322 158.758L53.1289 160.131L60.3397 167.502L73.163 148.52L71.5363 147.421L60.0602 164.408Z" fill="#17574D"/>
<path opacity="0.5" d="M261.332 167.265C259.02 169.974 250.364 175.59 250.364 175.59C250.364 175.59 258.095 179.62 258.689 189.929C265.759 186.691 271.045 183.519 271.045 183.519C271.045 183.519 271.508 175.524 261.332 167.265Z" fill="#6B6B6B"/>
<path d="M262.372 165.184C260.06 167.893 251.404 173.509 251.404 173.509C251.404 173.509 259.135 177.539 259.729 187.848C266.8 184.61 272.086 181.438 272.086 181.438C272.086 181.438 272.548 173.443 262.372 165.184Z" fill="white"/>
<path d="M262.981 168.125C261.648 169.086 260.319 170.05 258.994 171.02C258.339 171.5 257.684 171.986 257.034 172.47C256.384 172.954 255.709 173.402 255.13 173.958C255.113 173.976 255.104 173.999 255.103 174.023C255.102 174.047 255.109 174.07 255.124 174.089C255.138 174.108 255.159 174.121 255.183 174.126C255.206 174.131 255.231 174.128 255.252 174.116C255.962 173.732 256.606 173.219 257.261 172.749C257.916 172.278 258.581 171.802 259.237 171.326C260.55 170.369 261.86 169.408 263.167 168.443C263.355 168.304 263.175 167.985 262.981 168.125Z" fill="#303030"/>
<path d="M264.317 170.018C262.977 170.891 261.653 171.789 260.324 172.679C259.669 173.12 259.014 173.566 258.359 174.009C258.024 174.236 257.687 174.46 257.355 174.692C257.052 174.904 256.703 175.106 256.453 175.38C256.393 175.445 256.453 175.576 256.547 175.541C256.895 175.413 257.21 175.177 257.521 174.977C257.862 174.759 258.198 174.534 258.535 174.311C259.195 173.875 259.856 173.442 260.514 173.001C261.845 172.115 263.181 171.233 264.5 170.328C264.692 170.2 264.515 169.89 264.317 170.018Z" fill="#303030"/>
<path d="M265.845 171.674C264.481 172.558 263.12 173.443 261.761 174.33C261.081 174.773 260.402 175.218 259.723 175.665C259.399 175.878 259.074 176.09 258.753 176.308C258.432 176.526 258.076 176.74 257.807 177.036C257.752 177.097 257.807 177.211 257.892 177.181C258.256 177.064 258.568 176.849 258.888 176.649C259.232 176.43 259.573 176.212 259.913 175.994C260.595 175.553 261.276 175.111 261.957 174.667C263.315 173.78 264.674 172.891 266.033 172.002C266.241 171.87 266.052 171.541 265.845 171.674Z" fill="#303030"/>
<path d="M267.545 174.057C267.469 174.071 267.395 174.035 267.321 174.057C267.236 174.089 267.155 174.13 267.078 174.179L266.493 174.486L265.367 175.082L263.066 176.297C262.314 176.694 261.564 177.09 260.816 177.491C260.068 177.893 259.253 178.248 258.61 178.794C258.557 178.839 258.613 178.922 258.674 178.906C259.475 178.687 260.223 178.219 260.955 177.839C261.725 177.439 262.493 177.036 263.26 176.63L265.516 175.442L266.692 174.822C266.888 174.719 267.083 174.614 267.275 174.51C267.352 174.479 267.425 174.439 267.493 174.391C267.555 174.333 267.566 174.256 267.631 174.195C267.647 174.183 267.658 174.165 267.662 174.145C267.666 174.125 267.662 174.104 267.651 174.087C267.641 174.07 267.624 174.057 267.604 174.051C267.585 174.046 267.564 174.048 267.545 174.057Z" fill="#303030"/>
<path d="M268.646 176.384C267.236 177.098 265.856 177.878 264.464 178.625C263.784 178.99 263.105 179.356 262.426 179.724C261.75 180.088 261.002 180.414 260.399 180.894C260.326 180.955 260.405 181.084 260.493 181.056C261.21 180.826 261.882 180.39 262.544 180.037C263.243 179.664 263.94 179.292 264.638 178.92C266.031 178.173 267.444 177.456 268.818 176.677C269.008 176.569 268.84 176.286 268.646 176.384Z" fill="#303030"/>
<path d="M269.727 179.004C268.351 179.737 266.976 180.47 265.601 181.205C264.93 181.564 264.257 181.919 263.589 182.283C263.247 182.469 262.903 182.653 262.564 182.845C262.243 183.026 261.875 183.195 261.618 183.46C261.607 183.471 261.601 183.485 261.599 183.5C261.597 183.514 261.6 183.529 261.608 183.542C261.615 183.555 261.627 183.565 261.641 183.571C261.654 183.576 261.669 183.578 261.684 183.574C262.033 183.509 262.365 183.306 262.681 183.15C263.03 182.978 263.375 182.794 263.721 182.615C264.413 182.257 265.1 181.887 265.789 181.523C267.167 180.795 268.545 180.064 269.92 179.331C270.133 179.217 269.942 178.89 269.727 179.004Z" fill="#303030"/>
<path opacity="0.5" d="M63.3916 56.5332C53.7112 65.365 54.6319 73.3204 54.6319 73.3204C54.6319 73.3204 60.0908 76.1816 67.3366 79.0064C67.3366 68.6818 74.8218 64.2128 74.8218 64.2128C74.8218 64.2128 65.8569 59.1047 63.3916 56.5332Z" fill="#6B6B6B"/>
<path d="M62.4118 54.9172C52.7314 63.749 53.6514 71.7044 53.6514 71.7044C53.6514 71.7044 59.1103 74.5656 66.3561 77.3904C66.3561 67.0658 73.8413 62.5968 73.8413 62.5968C73.8413 62.5968 64.8785 57.4887 62.4118 54.9172Z" fill="white"/>
<path d="M68.1604 61.8874C67.4814 61.4419 66.803 60.9936 66.1225 60.5525C64.7424 59.6616 63.3595 58.7751 61.9737 57.8929C61.7728 57.7648 61.6098 58.0931 61.807 58.2204C63.1657 59.1074 64.5289 59.9901 65.8968 60.8684C66.5795 61.3051 67.2659 61.7418 67.9515 62.1785C68.6372 62.6152 69.3046 63.0847 70.0354 63.4275C70.0571 63.4375 70.0816 63.4395 70.1046 63.4332C70.1277 63.4268 70.1477 63.4126 70.1612 63.3929C70.1747 63.3732 70.1808 63.3493 70.1784 63.3256C70.1761 63.3018 70.1654 63.2796 70.1482 63.263C69.5361 62.7382 68.8301 62.3241 68.1604 61.8874Z" fill="#303030"/>
<path d="M67.9685 64.1211C67.6235 63.9086 67.2741 63.7048 66.9262 63.4973C66.2471 63.0926 65.5688 62.685 64.8882 62.2833C63.5111 61.4703 62.1362 60.65 60.7482 59.8559C60.5437 59.7387 60.3843 60.0597 60.5837 60.179C61.9528 61.0066 63.3372 61.8087 64.7172 62.6181C65.3992 63.0177 66.0841 63.4114 66.7675 63.8088C67.1176 64.0112 67.4655 64.2179 67.8178 64.4151C68.1403 64.5964 68.4678 64.8147 68.8237 64.9246C68.922 64.9545 68.9693 64.8206 68.9081 64.758C68.6418 64.4967 68.2829 64.3147 67.9685 64.1211Z" fill="#303030"/>
<path d="M66.6658 65.8177C66.3332 65.619 65.9969 65.4261 65.6614 65.2318C64.9583 64.8256 64.2547 64.4207 63.5506 64.017C62.14 63.2081 60.7295 62.4012 59.3189 61.5962C59.1005 61.4746 58.9338 61.8145 59.1456 61.9361C60.5528 62.7474 61.96 63.556 63.3672 64.362C64.0718 64.7662 64.7773 65.1685 65.4838 65.5688C65.8368 65.7689 66.1891 65.9698 66.545 66.1649C66.8754 66.3461 67.2001 66.5434 67.5698 66.6387C67.6593 66.662 67.7045 66.5463 67.647 66.4881C67.3675 66.2071 67.0057 66.0171 66.6658 65.8177Z" fill="#303030"/>
<path d="M64.6779 67.1117C63.9078 66.7536 63.1356 66.4014 62.3633 66.0491L59.9956 64.9675C59.6075 64.7913 59.2212 64.6152 58.8369 64.4391L58.2306 64.1654C58.1518 64.1211 58.0686 64.085 57.9824 64.0577C57.9096 64.0431 57.8368 64.0831 57.7575 64.0737C57.7401 64.07 57.722 64.0721 57.7059 64.0797C57.6899 64.0873 57.6767 64.0999 57.6685 64.1156C57.6602 64.1314 57.6574 64.1494 57.6603 64.1669C57.6632 64.1844 57.6718 64.2005 57.6847 64.2127C57.7495 64.2709 57.7691 64.3466 57.8303 64.4005C57.8986 64.4446 57.9719 64.4805 58.0486 64.5075L58.652 64.7855L59.8617 65.3365L62.185 66.3926C62.975 66.7522 63.7654 67.11 64.5564 67.4662C65.3082 67.8032 66.0849 68.2275 66.8942 68.4C66.9561 68.4131 67.007 68.3273 66.9525 68.285C66.2814 67.777 65.4392 67.4647 64.6779 67.1117Z" fill="#303030"/>
<path d="M63.1988 69.4366C62.4986 69.1096 61.7987 68.783 61.0989 68.4569C59.6658 67.7917 58.2436 67.0922 56.7944 66.4612C56.5957 66.3746 56.4436 66.6664 56.6408 66.7632C58.058 67.462 59.51 68.0974 60.9439 68.7619C61.6606 69.0943 62.3785 69.4257 63.0976 69.7562C63.7796 70.0706 64.4755 70.4658 65.2084 70.6551C65.2972 70.6776 65.3729 70.5444 65.2928 70.4884C64.6603 70.0437 63.8939 69.7613 63.1988 69.4366Z" fill="#303030"/>
<path d="M63.2381 72.5597C62.8887 72.3872 62.5343 72.2242 62.182 72.0582C61.4942 71.7336 60.7991 71.4177 60.1113 71.0975C58.6973 70.4424 57.2818 69.7893 55.865 69.1381C55.6466 69.0362 55.4719 69.3739 55.6932 69.4758C57.1096 70.1265 58.5265 70.7767 59.9438 71.4264C60.6528 71.7503 61.3602 72.0815 62.0721 72.3974C62.428 72.5561 62.7825 72.7198 63.1413 72.872C63.4652 73.0095 63.8087 73.1929 64.1603 73.2359C64.1749 73.2387 64.19 73.2367 64.2033 73.2302C64.2167 73.2237 64.2275 73.213 64.2343 73.1998C64.241 73.1865 64.2432 73.1715 64.2407 73.1568C64.2381 73.1422 64.2308 73.1288 64.22 73.1187C63.9456 72.8698 63.5678 72.7228 63.2381 72.5597Z" fill="#303030"/>
<path opacity="0.5" d="M244.14 85.8735C244.14 85.8735 235.988 92.9337 232.596 94.4666C237.932 107.081 246.093 108.939 246.093 108.939C246.093 108.939 250.812 104.554 256.116 98.3962C245.941 94.805 244.14 85.8735 244.14 85.8735Z" fill="#6B6B6B"/>
<path d="M244.14 84.2737C244.14 84.2737 235.988 91.3339 232.596 92.8667C237.932 105.482 246.093 107.339 246.093 107.339C246.093 107.339 250.812 102.954 256.116 96.7964C245.941 93.2059 244.14 84.2737 244.14 84.2737Z" fill="white"/>
<path d="M243.509 88.1452C242.781 88.5652 242.126 89.1169 241.462 89.6242C240.798 90.1315 240.109 90.6512 239.437 91.1702C238.078 92.2207 236.723 93.2749 235.372 94.3327C235.176 94.4863 235.445 94.76 235.637 94.6115C236.987 93.5804 238.332 92.5444 239.674 91.5035C240.344 90.9839 241.009 90.4576 241.676 89.9328C242.343 89.4081 243.04 88.9138 243.632 88.3134C243.649 88.2955 243.66 88.272 243.662 88.247C243.664 88.222 243.657 88.1972 243.642 88.177C243.627 88.1568 243.606 88.1425 243.581 88.1367C243.557 88.1309 243.531 88.1339 243.509 88.1452Z" fill="#303030"/>
<path d="M244.552 89.8862C244.204 90.058 243.897 90.3491 243.6 90.5915C243.271 90.8571 242.945 91.1308 242.623 91.4016C241.988 91.93 241.35 92.457 240.717 92.9883C239.437 94.0626 238.15 95.1318 236.885 96.2236C236.698 96.3844 236.957 96.6516 237.146 96.498C238.438 95.4368 239.71 94.3516 240.988 93.2729C241.619 92.7401 242.245 92.2015 242.874 91.6658C243.196 91.3921 243.52 91.1206 243.838 90.8419C244.129 90.5871 244.457 90.3404 244.686 90.0274C244.75 89.9408 244.636 89.8447 244.552 89.8862Z" fill="#303030"/>
<path d="M245.822 91.7292C245.446 91.9097 245.133 92.2001 244.814 92.4643C244.495 92.7285 244.195 92.9876 243.888 93.2511C243.242 93.8028 242.598 94.3557 241.955 94.9099C240.67 96.0186 239.386 97.1284 238.103 98.2391C237.908 98.4079 238.183 98.6933 238.378 98.5302C239.667 97.4268 240.953 96.3202 242.235 95.2105C242.879 94.6568 243.52 94.1015 244.16 93.5444C244.481 93.2657 244.802 92.9883 245.118 92.7052C245.409 92.4425 245.719 92.1884 245.942 91.8602C245.999 91.7772 245.9 91.692 245.822 91.7292Z" fill="#303030"/>
<path d="M247.351 93.0394C246.616 93.5271 246.015 94.2484 245.402 94.8758C244.79 95.5032 244.165 96.1488 243.55 96.7878L241.658 98.745L240.733 99.7029C240.573 99.8693 240.413 100.036 240.254 100.204C240.182 100.267 240.117 100.337 240.061 100.413C240.02 100.485 240.035 100.566 239.998 100.639C239.989 100.655 239.985 100.673 239.987 100.692C239.989 100.71 239.997 100.727 240.01 100.741C240.023 100.754 240.039 100.763 240.058 100.766C240.076 100.769 240.094 100.766 240.111 100.758C240.19 100.713 240.272 100.721 240.347 100.676C240.415 100.623 240.476 100.563 240.529 100.496C240.691 100.33 240.852 100.163 241.013 99.9969C241.335 99.6641 241.656 99.3307 241.977 98.9969L243.824 97.0797C244.455 96.4261 245.083 95.771 245.708 95.1145C246.301 94.4907 246.989 93.8771 247.441 93.1355C247.478 93.0794 247.411 92.9986 247.351 93.0394Z" fill="#303030"/>
<path d="M248.943 95.4479C248.287 95.913 247.741 96.5702 247.179 97.1423C246.617 97.7144 246.047 98.2938 245.483 98.871C244.329 100.052 243.144 101.21 242.018 102.419C241.863 102.584 242.099 102.836 242.263 102.675C243.444 101.522 244.575 100.311 245.73 99.1301C246.307 98.5381 246.883 97.9456 247.458 97.3527C248.005 96.79 248.638 96.242 249.077 95.5891C249.131 95.509 249.025 95.3882 248.943 95.4479Z" fill="#303030"/>
<path d="M251.165 97.4159C250.823 97.5993 250.547 97.9203 250.271 98.1896C249.98 98.4735 249.696 98.7661 249.41 99.055C248.85 99.6198 248.298 100.193 247.743 100.762C246.605 101.926 245.469 103.094 244.335 104.265C244.157 104.448 244.43 104.734 244.607 104.552C245.742 103.382 246.875 102.212 248.009 101.041C248.574 100.455 249.144 99.8724 249.705 99.2821C249.986 98.9866 250.271 98.694 250.545 98.3934C250.793 98.1219 251.093 97.8468 251.26 97.5149C251.266 97.5015 251.269 97.4863 251.267 97.4715C251.264 97.4567 251.258 97.443 251.247 97.4322C251.237 97.4213 251.223 97.414 251.209 97.4111C251.194 97.4081 251.179 97.4098 251.165 97.4159Z" fill="#303030"/>
<path d="M283.494 89.9604C291.517 81.9379 291.517 68.9308 283.494 60.9083C275.472 52.8858 262.465 52.8858 254.442 60.9083C246.42 68.9308 246.42 81.9379 254.442 89.9604C262.465 97.9829 275.472 97.9829 283.494 89.9604Z" fill="#E54357"/>
<path d="M281.112 87.578C287.818 80.8712 287.818 69.9974 281.112 63.2907C274.405 56.584 263.531 56.584 256.824 63.2907C250.118 69.9974 250.118 80.8712 256.824 87.578C263.531 94.2847 274.405 94.2847 281.112 87.578Z" fill="#FAFAFA"/>
<path d="M278.877 85.3438C284.35 79.8709 284.35 70.9977 278.877 65.5249C273.404 60.052 264.531 60.052 259.058 65.5249C253.585 70.9977 253.585 79.8709 259.058 85.3438C264.531 90.8166 273.404 90.8166 278.877 85.3438Z" fill="#E54357"/>
<path d="M275.754 82.2197C279.501 78.4722 279.501 72.3964 275.754 68.6489C272.006 64.9014 265.93 64.9014 262.183 68.6489C258.435 72.3964 258.435 78.4723 262.183 82.2197C265.93 85.9672 272.006 85.9672 275.754 82.2197Z" fill="#FAFAFA"/>
<path d="M275.083 76.9902C275.935 73.6247 273.898 70.205 270.533 69.3521C267.167 68.4993 263.748 70.5362 262.895 73.9018C262.042 77.2673 264.079 80.687 267.444 81.5398C270.81 82.3927 274.23 80.3558 275.083 76.9902Z" fill="#E54357"/>
<path d="M269.695 78.414C271.329 78.0121 272.327 76.3621 271.926 74.7285C271.524 73.0949 269.874 72.0964 268.24 72.4982C266.607 72.9001 265.608 74.5501 266.01 76.1837C266.412 77.8173 268.062 78.8158 269.695 78.414Z" fill="#FAFAFA"/>
<path d="M269.465 77.0152C270.34 76.741 270.827 75.8091 270.553 74.9338C270.279 74.0584 269.347 73.571 268.472 73.8451C267.596 74.1193 267.109 75.0512 267.383 75.9266C267.657 76.802 268.589 77.2894 269.465 77.0152Z" fill="#E54357"/>
<path d="M238.071 54.9218L250.817 65.5688L256.485 65.0979L243.632 54.3606L238.071 54.9218Z" fill="#92D4F5"/>
<path d="M243.195 48.7896L243.632 54.3605L256.484 65.0978L255.94 59.4366L243.195 48.7896Z" fill="#92D4F5"/>
<path d="M269.378 74.7776L244.403 53.9144C244.233 53.772 244.013 53.7032 243.792 53.7231C243.571 53.7429 243.366 53.8499 243.224 54.0203C243.082 54.1908 243.013 54.4108 243.033 54.632C243.053 54.8532 243.159 55.0574 243.33 55.1998L268.305 76.0622C268.475 76.2046 268.695 76.2735 268.916 76.2537C269.137 76.2339 269.341 76.1271 269.484 75.9567C269.626 75.7863 269.695 75.5664 269.675 75.3453C269.655 75.1241 269.549 74.9199 269.378 74.7776Z" fill="#3784BF"/>
</g>
</g>
</g>
<defs>
<clipPath id="clip0_352_482">
<rect width="340.66" height="227.09" fill="white" transform="translate(0.668945 0.602051)"/>
</clipPath>
<clipPath id="clip1_352_482">
<rect width="340.66" height="227.09" fill="white" transform="translate(0.668945 0.602051)"/>
</clipPath>
<clipPath id="clip2_352_482">
<rect width="340.635" height="227.09" fill="white" transform="translate(0.681641 0.602051)"/>
</clipPath>
</defs>
</svg>
