<svg width="32" height="24" viewBox="0 0 32 24" fill="none" xmlns="http://www.w3.org/2000/svg">
<path d="M26.6667 10C26.6667 16 16 22 16 22C16 22 5.33333 16 5.33333 10C5.33333 7.87827 6.45714 5.84344 8.45753 4.34315C10.4579 2.84285 13.171 2 16 2C18.829 2 21.5421 2.84285 23.5425 4.34315C25.5429 5.84344 26.6667 7.87827 26.6667 10Z" stroke="black" stroke-width="2" stroke-linecap="round" stroke-linejoin="round"/>
<path d="M16 13C18.2091 13 20 11.6569 20 10C20 8.34315 18.2091 7 16 7C13.7909 7 12 8.34315 12 10C12 11.6569 13.7909 13 16 13Z" stroke="black" stroke-width="2" stroke-linecap="round" stroke-linejoin="round"/>
</svg>
